<svg xmlns="http://www.w3.org/2000/svg" viewBox="0 0 1440 600" width="1440" height="600" preserveAspectRatio="xMidYMid slice" style="width: 100%; height: 100%; transform: translate3d(0px, 0px, 0px);"><defs><clipPath id="__lottie_element_2"><rect width="1440" height="600" x="0" y="0"></rect></clipPath></defs><g clip-path="url(#__lottie_element_2)"><g transform="matrix(2,0,0,2,-720.5,-300.5)" opacity="1" style="display: block;"><g opacity="1" transform="matrix(1,0,0,1,720.25,300.25)"><path fill="rgb(36,204,133)" fill-opacity="1" d=" M-720,300 C-720,300 720,300 720,300 C720,300 720,-300 720,-300 C720,-300 -720,-300 -720,-300 C-720,-300 -720,300 -720,300z"></path></g></g><g transform="matrix(1.9608302116394043,0,0,1.9608302116394043,775.3635864257812,58.48640441894531)" opacity="1" style="display: none;"><g opacity="1" transform="matrix(1,0,0,1,14.934000015258789,41.43000030517578)"><path fill="rgb(31,98,74)" fill-opacity="1" d=" M-14.684000015258789,-24.225000381469727 C-14.684000015258789,-24.225000381469727 14.684000015258789,-7.269000053405762 14.684000015258789,-7.269000053405762 C14.684000015258789,-7.269000053405762 14.684000015258789,24.225000381469727 14.684000015258789,24.225000381469727 C14.684000015258789,24.225000381469727 -14.684000015258789,7.269000053405762 -14.684000015258789,7.269000053405762 C-14.684000015258789,7.269000053405762 -14.684000015258789,-24.225000381469727 -14.684000015258789,-24.225000381469727z"></path></g><g opacity="1" transform="matrix(1,0,0,1,29.618000030517578,17.224000930786133)"><path fill="rgb(36,204,133)" fill-opacity="1" d=" M0,-16.975000381469727 C0,-16.975000381469727 29.368000030517578,-0.017999999225139618 29.368000030517578,-0.017999999225139618 C29.368000030517578,-0.017999999225139618 0,16.975000381469727 0,16.975000381469727 C0,16.975000381469727 -29.368000030517578,0.019999999552965164 -29.368000030517578,0.019999999552965164 C-29.368000030517578,0.019999999552965164 0,-16.975000381469727 0,-16.975000381469727z"></path></g><g opacity="1" transform="matrix(1,0,0,1,44.301998138427734,41.43000030517578)"><path fill="rgb(176,242,220)" fill-opacity="1" d=" M14.684000015258789,-24.225000381469727 C14.684000015258789,-24.225000381469727 -14.684000015258789,-7.269000053405762 -14.684000015258789,-7.269000053405762 C-14.684000015258789,-7.269000053405762 -14.684000015258789,24.225000381469727 -14.684000015258789,24.225000381469727 C-14.684000015258789,24.225000381469727 14.684000015258789,7.269000053405762 14.684000015258789,7.269000053405762 C14.684000015258789,7.269000053405762 14.684000015258789,-24.225000381469727 14.684000015258789,-24.225000381469727z"></path></g></g><g transform="matrix(1.6217930316925049,0,0,1.6217930316925049,785.3184204101562,70.20204162597656)" opacity="1" style="display: block;"><g opacity="1" transform="matrix(1,0,0,1,14.934000015258789,41.43000030517578)"><path fill="rgb(31,98,74)" fill-opacity="1" d=" M-14.684000015258789,-24.225000381469727 C-14.684000015258789,-24.225000381469727 14.684000015258789,-7.269000053405762 14.684000015258789,-7.269000053405762 C14.684000015258789,-7.269000053405762 14.684000015258789,24.225000381469727 14.684000015258789,24.225000381469727 C14.684000015258789,24.225000381469727 -14.684000015258789,7.269000053405762 -14.684000015258789,7.269000053405762 C-14.684000015258789,7.269000053405762 -14.684000015258789,-24.225000381469727 -14.684000015258789,-24.225000381469727z"></path></g><g opacity="1" transform="matrix(1,0,0,1,29.618000030517578,17.224000930786133)"><path fill="rgb(36,204,133)" fill-opacity="1" d=" M0,-16.975000381469727 C0,-16.975000381469727 29.368000030517578,-0.017999999225139618 29.368000030517578,-0.017999999225139618 C29.368000030517578,-0.017999999225139618 0,16.975000381469727 0,16.975000381469727 C0,16.975000381469727 -29.368000030517578,0.019999999552965164 -29.368000030517578,0.019999999552965164 C-29.368000030517578,0.019999999552965164 0,-16.975000381469727 0,-16.975000381469727z"></path></g><g opacity="1" transform="matrix(1,0,0,1,44.301998138427734,41.43000030517578)"><path fill="rgb(176,242,220)" fill-opacity="1" d=" M14.684000015258789,-24.225000381469727 C14.684000015258789,-24.225000381469727 -14.684000015258789,-7.269000053405762 -14.684000015258789,-7.269000053405762 C-14.684000015258789,-7.269000053405762 -14.684000015258789,24.225000381469727 -14.684000015258789,24.225000381469727 C-14.684000015258789,24.225000381469727 14.684000015258789,7.269000053405762 14.684000015258789,7.269000053405762 C14.684000015258789,7.269000053405762 14.684000015258789,-24.225000381469727 14.684000015258789,-24.225000381469727z"></path></g></g><g transform="matrix(0.9992401599884033,0,0,0.9992401599884033,9.94537353515625,-90.91690063476562)" opacity="1" style="display: block;"><g opacity="1" transform="matrix(1,0,0,1,14.934000015258789,41.430999755859375)"><path fill="rgb(31,98,74)" fill-opacity="1" d=" M-14.684000015258789,-24.225000381469727 C-14.684000015258789,-24.225000381469727 14.684000015258789,-7.269000053405762 14.684000015258789,-7.269000053405762 C14.684000015258789,-7.269000053405762 14.684000015258789,24.225000381469727 14.684000015258789,24.225000381469727 C14.684000015258789,24.225000381469727 -14.684000015258789,7.269000053405762 -14.684000015258789,7.269000053405762 C-14.684000015258789,7.269000053405762 -14.684000015258789,-24.225000381469727 -14.684000015258789,-24.225000381469727z"></path></g><g opacity="1" transform="matrix(1,0,0,1,29.618000030517578,17.225000381469727)"><path fill="rgb(36,204,133)" fill-opacity="1" d=" M0,-16.975000381469727 C0,-16.975000381469727 29.368000030517578,-0.017999999225139618 29.368000030517578,-0.017999999225139618 C29.368000030517578,-0.017999999225139618 0,16.975000381469727 0,16.975000381469727 C0,16.975000381469727 -29.368000030517578,0.019999999552965164 -29.368000030517578,0.019999999552965164 C-29.368000030517578,0.019999999552965164 0,-16.975000381469727 0,-16.975000381469727z"></path></g><g opacity="1" transform="matrix(1,0,0,1,44.301998138427734,41.430999755859375)"><path fill="rgb(176,242,220)" fill-opacity="1" d=" M14.684000015258789,-24.225000381469727 C14.684000015258789,-24.225000381469727 -14.684000015258789,-7.269000053405762 -14.684000015258789,-7.269000053405762 C-14.684000015258789,-7.269000053405762 -14.684000015258789,24.225000381469727 -14.684000015258789,24.225000381469727 C-14.684000015258789,24.225000381469727 14.684000015258789,7.269000053405762 14.684000015258789,7.269000053405762 C14.684000015258789,7.269000053405762 14.684000015258789,-24.225000381469727 14.684000015258789,-24.225000381469727z"></path></g></g><g transform="matrix(0.9000290632247925,0,0,0.9000290632247925,655.3617553710938,217.67440795898438)" opacity="1" style="display: none;"><g opacity="1" transform="matrix(1,0,0,1,14.934000015258789,41.430999755859375)"><path fill="rgb(31,98,74)" fill-opacity="1" d=" M-14.684000015258789,-24.225000381469727 C-14.684000015258789,-24.225000381469727 14.684000015258789,-7.269000053405762 14.684000015258789,-7.269000053405762 C14.684000015258789,-7.269000053405762 14.684000015258789,24.225000381469727 14.684000015258789,24.225000381469727 C14.684000015258789,24.225000381469727 -14.684000015258789,7.269000053405762 -14.684000015258789,7.269000053405762 C-14.684000015258789,7.269000053405762 -14.684000015258789,-24.225000381469727 -14.684000015258789,-24.225000381469727z"></path></g><g opacity="1" transform="matrix(1,0,0,1,29.618000030517578,17.225000381469727)"><path fill="rgb(36,204,133)" fill-opacity="1" d=" M0,-16.975000381469727 C0,-16.975000381469727 29.368000030517578,-0.017999999225139618 29.368000030517578,-0.017999999225139618 C29.368000030517578,-0.017999999225139618 0,16.975000381469727 0,16.975000381469727 C0,16.975000381469727 -29.368000030517578,0.019999999552965164 -29.368000030517578,0.019999999552965164 C-29.368000030517578,0.019999999552965164 0,-16.975000381469727 0,-16.975000381469727z"></path></g><g opacity="1" transform="matrix(1,0,0,1,44.301998138427734,41.430999755859375)"><path fill="rgb(176,242,220)" fill-opacity="1" d=" M14.684000015258789,-24.225000381469727 C14.684000015258789,-24.225000381469727 -14.684000015258789,-7.269000053405762 -14.684000015258789,-7.269000053405762 C-14.684000015258789,-7.269000053405762 -14.684000015258789,24.225000381469727 -14.684000015258789,24.225000381469727 C-14.684000015258789,24.225000381469727 14.684000015258789,7.269000053405762 14.684000015258789,7.269000053405762 C14.684000015258789,7.269000053405762 14.684000015258789,-24.225000381469727 14.684000015258789,-24.225000381469727z"></path></g></g><g transform="matrix(0.9091192483901978,0,0,0.9091192483901978,654.7089233398438,216.84292602539062)" opacity="1" style="display: none;"><g opacity="1" transform="matrix(1,0,0,1,14.934000015258789,41.430999755859375)"><path fill="rgb(31,98,74)" fill-opacity="1" d=" M-14.684000015258789,-24.225000381469727 C-14.684000015258789,-24.225000381469727 14.684000015258789,-7.269000053405762 14.684000015258789,-7.269000053405762 C14.684000015258789,-7.269000053405762 14.684000015258789,24.225000381469727 14.684000015258789,24.225000381469727 C14.684000015258789,24.225000381469727 -14.684000015258789,7.269000053405762 -14.684000015258789,7.269000053405762 C-14.684000015258789,7.269000053405762 -14.684000015258789,-24.225000381469727 -14.684000015258789,-24.225000381469727z"></path></g><g opacity="1" transform="matrix(1,0,0,1,29.618000030517578,17.225000381469727)"><path fill="rgb(36,204,133)" fill-opacity="1" d=" M0,-16.975000381469727 C0,-16.975000381469727 29.368000030517578,-0.017999999225139618 29.368000030517578,-0.017999999225139618 C29.368000030517578,-0.017999999225139618 0,16.975000381469727 0,16.975000381469727 C0,16.975000381469727 -29.368000030517578,0.019999999552965164 -29.368000030517578,0.019999999552965164 C-29.368000030517578,0.019999999552965164 0,-16.975000381469727 0,-16.975000381469727z"></path></g><g opacity="1" transform="matrix(1,0,0,1,44.301998138427734,41.430999755859375)"><path fill="rgb(176,242,220)" fill-opacity="1" d=" M14.684000015258789,-24.225000381469727 C14.684000015258789,-24.225000381469727 -14.684000015258789,-7.269000053405762 -14.684000015258789,-7.269000053405762 C-14.684000015258789,-7.269000053405762 -14.684000015258789,24.225000381469727 -14.684000015258789,24.225000381469727 C-14.684000015258789,24.225000381469727 14.684000015258789,7.269000053405762 14.684000015258789,7.269000053405762 C14.684000015258789,7.269000053405762 14.684000015258789,-24.225000381469727 14.684000015258789,-24.225000381469727z"></path></g></g><g transform="matrix(0.9607924222946167,0,0,0.9607924222946167,650.9978637695312,212.11639404296875)" opacity="1" style="display: none;"><g opacity="1" transform="matrix(1,0,0,1,14.934000015258789,41.430999755859375)"><path fill="rgb(31,98,74)" fill-opacity="1" d=" M-14.684000015258789,-24.225000381469727 C-14.684000015258789,-24.225000381469727 14.684000015258789,-7.269000053405762 14.684000015258789,-7.269000053405762 C14.684000015258789,-7.269000053405762 14.684000015258789,24.225000381469727 14.684000015258789,24.225000381469727 C14.684000015258789,24.225000381469727 -14.684000015258789,7.269000053405762 -14.684000015258789,7.269000053405762 C-14.684000015258789,7.269000053405762 -14.684000015258789,-24.225000381469727 -14.684000015258789,-24.225000381469727z"></path></g><g opacity="1" transform="matrix(1,0,0,1,29.618000030517578,17.225000381469727)"><path fill="rgb(36,204,133)" fill-opacity="1" d=" M0,-16.975000381469727 C0,-16.975000381469727 29.368000030517578,-0.017999999225139618 29.368000030517578,-0.017999999225139618 C29.368000030517578,-0.017999999225139618 0,16.975000381469727 0,16.975000381469727 C0,16.975000381469727 -29.368000030517578,0.019999999552965164 -29.368000030517578,0.019999999552965164 C-29.368000030517578,0.019999999552965164 0,-16.975000381469727 0,-16.975000381469727z"></path></g><g opacity="1" transform="matrix(1,0,0,1,44.301998138427734,41.430999755859375)"><path fill="rgb(176,242,220)" fill-opacity="1" d=" M14.684000015258789,-24.225000381469727 C14.684000015258789,-24.225000381469727 -14.684000015258789,-7.269000053405762 -14.684000015258789,-7.269000053405762 C-14.684000015258789,-7.269000053405762 -14.684000015258789,24.225000381469727 -14.684000015258789,24.225000381469727 C-14.684000015258789,24.225000381469727 14.684000015258789,7.269000053405762 14.684000015258789,7.269000053405762 C14.684000015258789,7.269000053405762 14.684000015258789,-24.225000381469727 14.684000015258789,-24.225000381469727z"></path></g></g><g transform="matrix(1.0000050067901611,0,0,1.0000050067901611,648.1817016601562,208.52960205078125)" opacity="1" style="display: none;"><g opacity="1" transform="matrix(1,0,0,1,14.934000015258789,41.430999755859375)"><path fill="rgb(31,98,74)" fill-opacity="1" d=" M-14.684000015258789,-24.225000381469727 C-14.684000015258789,-24.225000381469727 14.684000015258789,-7.269000053405762 14.684000015258789,-7.269000053405762 C14.684000015258789,-7.269000053405762 14.684000015258789,24.225000381469727 14.684000015258789,24.225000381469727 C14.684000015258789,24.225000381469727 -14.684000015258789,7.269000053405762 -14.684000015258789,7.269000053405762 C-14.684000015258789,7.269000053405762 -14.684000015258789,-24.225000381469727 -14.684000015258789,-24.225000381469727z"></path></g><g opacity="1" transform="matrix(1,0,0,1,29.618000030517578,17.225000381469727)"><path fill="rgb(36,204,133)" fill-opacity="1" d=" M0,-16.975000381469727 C0,-16.975000381469727 29.368000030517578,-0.017999999225139618 29.368000030517578,-0.017999999225139618 C29.368000030517578,-0.017999999225139618 0,16.975000381469727 0,16.975000381469727 C0,16.975000381469727 -29.368000030517578,0.019999999552965164 -29.368000030517578,0.019999999552965164 C-29.368000030517578,0.019999999552965164 0,-16.975000381469727 0,-16.975000381469727z"></path></g><g opacity="1" transform="matrix(1,0,0,1,44.301998138427734,41.430999755859375)"><path fill="rgb(176,242,220)" fill-opacity="1" d=" M14.684000015258789,-24.225000381469727 C14.684000015258789,-24.225000381469727 -14.684000015258789,-7.269000053405762 -14.684000015258789,-7.269000053405762 C-14.684000015258789,-7.269000053405762 -14.684000015258789,24.225000381469727 -14.684000015258789,24.225000381469727 C-14.684000015258789,24.225000381469727 14.684000015258789,7.269000053405762 14.684000015258789,7.269000053405762 C14.684000015258789,7.269000053405762 14.684000015258789,-24.225000381469727 14.684000015258789,-24.225000381469727z"></path></g></g><g style="display: none;" transform="matrix(0.9096261858940125,0,0,0.9096261858940125,515.8162231445312,291.51318359375)" opacity="1"><g opacity="1" transform="matrix(1,0,0,1,10.307000160217285,28.45400047302246)"><path fill="rgb(31,98,74)" fill-opacity="1" d=" M-10.057000160217285,-16.591999053955078 C-10.057000160217285,-16.591999053955078 10.057000160217285,-4.979000091552734 10.057000160217285,-4.979000091552734 C10.057000160217285,-4.979000091552734 10.057000160217285,16.591999053955078 10.057000160217285,16.591999053955078 C10.057000160217285,16.591999053955078 -10.057000160217285,4.979000091552734 -10.057000160217285,4.979000091552734 C-10.057000160217285,4.979000091552734 -10.057000160217285,-16.591999053955078 -10.057000160217285,-16.591999053955078z"></path></g><g opacity="1" transform="matrix(1,0,0,1,20.36400032043457,11.87600040435791)"><path fill="rgb(36,204,133)" fill-opacity="1" d=" M0,-11.62600040435791 C0,-11.62600040435791 20.11400032043457,-0.013000000268220901 20.11400032043457,-0.013000000268220901 C20.11400032043457,-0.013000000268220901 0,11.62600040435791 0,11.62600040435791 C0,11.62600040435791 -20.11400032043457,0.013000000268220901 -20.11400032043457,0.013000000268220901 C-20.11400032043457,0.013000000268220901 0,-11.62600040435791 0,-11.62600040435791z"></path></g><g opacity="1" transform="matrix(1,0,0,1,30.42099952697754,28.45400047302246)"><path fill="rgb(176,242,220)" fill-opacity="1" d=" M10.057000160217285,-16.591999053955078 C10.057000160217285,-16.591999053955078 -10.057000160217285,-4.979000091552734 -10.057000160217285,-4.979000091552734 C-10.057000160217285,-4.979000091552734 -10.057000160217285,16.591999053955078 -10.057000160217285,16.591999053955078 C-10.057000160217285,16.591999053955078 10.057000160217285,4.979000091552734 10.057000160217285,4.979000091552734 C10.057000160217285,4.979000091552734 10.057000160217285,-16.591999053955078 10.057000160217285,-16.591999053955078z"></path></g></g><g transform="matrix(0.9382238984107971,0,0,0.9382238984107971,602.5226440429688,198.22476196289062)" opacity="1" style="display: none;"><g opacity="1" transform="matrix(1,0,0,1,22.385000228881836,62.32699966430664)"><path fill="rgb(31,98,74)" fill-opacity="1" d=" M-22.135000228881836,-36.518001556396484 C-22.135000228881836,-36.518001556396484 22.135000228881836,-10.958000183105469 22.135000228881836,-10.958000183105469 C22.135000228881836,-10.958000183105469 22.135000228881836,36.518001556396484 22.135000228881836,36.518001556396484 C22.135000228881836,36.518001556396484 -22.135000228881836,10.958000183105469 -22.135000228881836,10.958000183105469 C-22.135000228881836,10.958000183105469 -22.135000228881836,-36.518001556396484 -22.135000228881836,-36.518001556396484z"></path></g><g opacity="1" transform="matrix(1,0,0,1,44.52000045776367,25.83799934387207)"><path fill="rgb(36,204,133)" fill-opacity="1" d=" M0,-25.58799934387207 C0,-25.58799934387207 44.27000045776367,-0.028999999165534973 44.27000045776367,-0.028999999165534973 C44.27000045776367,-0.028999999165534973 0,25.58799934387207 0,25.58799934387207 C0,25.58799934387207 -44.27000045776367,0.028999999165534973 -44.27000045776367,0.028999999165534973 C-44.27000045776367,0.028999999165534973 0,-25.58799934387207 0,-25.58799934387207z"></path></g><g opacity="1" transform="matrix(1,0,0,1,66.65499877929688,62.32699966430664)"><path fill="rgb(176,242,220)" fill-opacity="1" d=" M22.135000228881836,-36.518001556396484 C22.135000228881836,-36.518001556396484 -22.135000228881836,-10.958000183105469 -22.135000228881836,-10.958000183105469 C-22.135000228881836,-10.958000183105469 -22.135000228881836,36.518001556396484 -22.135000228881836,36.518001556396484 C-22.135000228881836,36.518001556396484 22.135000228881836,10.958000183105469 22.135000228881836,10.958000183105469 C22.135000228881836,10.958000183105469 22.135000228881836,-36.518001556396484 22.135000228881836,-36.518001556396484z"></path></g></g><g transform="matrix(0.9992383718490601,0,0,0.9992383718490601,1249.025390625,586.7401123046875)" opacity="1" style="display: block;"><g opacity="1" transform="matrix(1,0,0,1,20.36400032043457,56.659000396728516)"><path fill="rgb(31,98,74)" fill-opacity="1" d=" M-20.11400032043457,-33.18299865722656 C-20.11400032043457,-33.18299865722656 20.11400032043457,-9.956999778747559 20.11400032043457,-9.956999778747559 C20.11400032043457,-9.956999778747559 20.11400032043457,33.18299865722656 20.11400032043457,33.18299865722656 C20.11400032043457,33.18299865722656 -20.11400032043457,9.958000183105469 -20.11400032043457,9.958000183105469 C-20.11400032043457,9.958000183105469 -20.11400032043457,-33.18299865722656 -20.11400032043457,-33.18299865722656z"></path></g><g opacity="1" transform="matrix(1,0,0,1,40.47800064086914,23.50200080871582)"><path fill="rgb(36,204,133)" fill-opacity="1" d=" M0,-23.25200080871582 C0,-23.25200080871582 40.22800064086914,-0.026000000536441803 40.22800064086914,-0.026000000536441803 C40.22800064086914,-0.026000000536441803 0,23.25200080871582 0,23.25200080871582 C0,23.25200080871582 -40.22800064086914,0.026000000536441803 -40.22800064086914,0.026000000536441803 C-40.22800064086914,0.026000000536441803 0,-23.25200080871582 0,-23.25200080871582z"></path></g><g opacity="1" transform="matrix(1,0,0,1,60.59199905395508,56.659000396728516)"><path fill="rgb(176,242,220)" fill-opacity="1" d=" M20.11400032043457,-33.18299865722656 C20.11400032043457,-33.18299865722656 -20.11400032043457,-9.956999778747559 -20.11400032043457,-9.956999778747559 C-20.11400032043457,-9.956999778747559 -20.11400032043457,33.18299865722656 -20.11400032043457,33.18299865722656 C-20.11400032043457,33.18299865722656 20.11400032043457,9.958000183105469 20.11400032043457,9.958000183105469 C20.11400032043457,9.958000183105469 20.11400032043457,-33.18299865722656 20.11400032043457,-33.18299865722656z"></path></g></g><g transform="matrix(0.9091676473617554,0,0,0.9091676473617554,895.6407470703125,405.5842590332031)" opacity="1" style="display: none;"><g opacity="1" transform="matrix(1,0,0,1,10.307000160217285,28.45400047302246)"><path fill="rgb(31,98,74)" fill-opacity="1" d=" M-10.057000160217285,-16.591999053955078 C-10.057000160217285,-16.591999053955078 10.057000160217285,-4.979000091552734 10.057000160217285,-4.979000091552734 C10.057000160217285,-4.979000091552734 10.057000160217285,16.591999053955078 10.057000160217285,16.591999053955078 C10.057000160217285,16.591999053955078 -10.057000160217285,4.979000091552734 -10.057000160217285,4.979000091552734 C-10.057000160217285,4.979000091552734 -10.057000160217285,-16.591999053955078 -10.057000160217285,-16.591999053955078z"></path></g><g opacity="1" transform="matrix(1,0,0,1,20.36400032043457,11.87600040435791)"><path fill="rgb(36,204,133)" fill-opacity="1" d=" M0,-11.62600040435791 C0,-11.62600040435791 20.11400032043457,-0.013000000268220901 20.11400032043457,-0.013000000268220901 C20.11400032043457,-0.013000000268220901 0,11.62600040435791 0,11.62600040435791 C0,11.62600040435791 -20.11400032043457,0.013000000268220901 -20.11400032043457,0.013000000268220901 C-20.11400032043457,0.013000000268220901 0,-11.62600040435791 0,-11.62600040435791z"></path></g><g opacity="1" transform="matrix(1,0,0,1,30.42099952697754,28.45400047302246)"><path fill="rgb(176,242,220)" fill-opacity="1" d=" M10.057000160217285,-16.591999053955078 C10.057000160217285,-16.591999053955078 -10.057000160217285,-4.979000091552734 -10.057000160217285,-4.979000091552734 C-10.057000160217285,-4.979000091552734 -10.057000160217285,16.591999053955078 -10.057000160217285,16.591999053955078 C-10.057000160217285,16.591999053955078 10.057000160217285,4.979000091552734 10.057000160217285,4.979000091552734 C10.057000160217285,4.979000091552734 10.057000160217285,-16.591999053955078 10.057000160217285,-16.591999053955078z"></path></g></g><g transform="matrix(0.9091676473617554,0,0,0.9091676473617554,908.6451416015625,414.0474853515625)" opacity="1" style="display: none;"><g opacity="1" transform="matrix(1,0,0,1,10.307000160217285,28.45400047302246)"><path fill="rgb(176,242,220)" fill-opacity="1" d=" M-10.057000160217285,-16.591999053955078 C-10.057000160217285,-16.591999053955078 -17.232999801635742,-22.049999237060547 -17.232999801635742,-22.049999237060547 C-17.232999801635742,-22.049999237060547 -17.690000534057617,9.640999794006348 -17.690000534057617,9.640999794006348 C-17.690000534057617,9.640999794006348 -9.585000038146973,6.90500020980835 -9.585000038146973,6.90500020980835 C-9.585000038146973,6.90500020980835 -10.057000160217285,-16.591999053955078 -10.057000160217285,-16.591999053955078z"></path></g><g opacity="1" transform="matrix(1,0,0,1,20.36400032043457,11.87600040435791)"><path fill="rgb(176,242,220)" fill-opacity="1" d=" M12.086000442504883,-18.000999450683594 C12.086000442504883,-18.000999450683594 10.54800033569336,-36.77299880981445 10.54800033569336,-36.77299880981445 C10.54800033569336,-36.77299880981445 -27.452999114990234,-15.937000274658203 -27.452999114990234,-15.937000274658203 C-27.452999114990234,-15.937000274658203 -27.479000091552734,3.9260001182556152 -27.479000091552734,3.9260001182556152 C-27.479000091552734,3.9260001182556152 12.086000442504883,-18.000999450683594 12.086000442504883,-18.000999450683594z"></path></g><g opacity="1" transform="matrix(1,0,0,1,0,0)"><path fill="rgb(31,98,74)" fill-opacity="1" d=" M-40.35100173950195,-21.365999221801758 C-40.35100173950195,-21.365999221801758 -41.928001403808594,19.510000228881836 -41.928001403808594,19.510000228881836 C-41.928001403808594,19.510000228881836 -7.493000030517578,39.224998474121094 -7.493000030517578,39.224998474121094 C-7.493000030517578,39.224998474121094 -6.9670000076293945,-2.7019999027252197 -6.9670000076293945,-2.7019999027252197 C-6.9670000076293945,-2.7019999027252197 -40.35100173950195,-21.365999221801758 -40.35100173950195,-21.365999221801758z"></path><path stroke-linecap="butt" stroke-linejoin="miter" fill-opacity="0" stroke-miterlimit="4" stroke="rgb(26,26,26)" stroke-opacity="1" stroke-width="0" d=" M-40.35100173950195,-21.365999221801758 C-40.35100173950195,-21.365999221801758 -41.928001403808594,19.510000228881836 -41.928001403808594,19.510000228881836 C-41.928001403808594,19.510000228881836 -7.493000030517578,39.224998474121094 -7.493000030517578,39.224998474121094 C-7.493000030517578,39.224998474121094 -6.9670000076293945,-2.7019999027252197 -6.9670000076293945,-2.7019999027252197 C-6.9670000076293945,-2.7019999027252197 -40.35100173950195,-21.365999221801758 -40.35100173950195,-21.365999221801758z"></path></g></g><g transform="matrix(1.0000032186508179,0,0,1.0000032186508179,741.7081298828125,295.9904479980469)" opacity="1" style="display: none;"><g opacity="1" transform="matrix(1,0,0,1,20.36400032043457,56.659000396728516)"><path fill="rgb(31,98,74)" fill-opacity="1" d=" M-20.11400032043457,-33.18299865722656 C-20.11400032043457,-33.18299865722656 20.11400032043457,-9.956999778747559 20.11400032043457,-9.956999778747559 C20.11400032043457,-9.956999778747559 20.11400032043457,33.18299865722656 20.11400032043457,33.18299865722656 C20.11400032043457,33.18299865722656 -20.11400032043457,9.958000183105469 -20.11400032043457,9.958000183105469 C-20.11400032043457,9.958000183105469 -20.11400032043457,-33.18299865722656 -20.11400032043457,-33.18299865722656z"></path></g><g opacity="1" transform="matrix(1,0,0,1,40.47800064086914,23.50200080871582)"><path fill="rgb(36,204,133)" fill-opacity="1" d=" M0,-23.25200080871582 C0,-23.25200080871582 40.22800064086914,-0.026000000536441803 40.22800064086914,-0.026000000536441803 C40.22800064086914,-0.026000000536441803 0,23.25200080871582 0,23.25200080871582 C0,23.25200080871582 -40.22800064086914,0.026000000536441803 -40.22800064086914,0.026000000536441803 C-40.22800064086914,0.026000000536441803 0,-23.25200080871582 0,-23.25200080871582z"></path></g><g opacity="1" transform="matrix(1,0,0,1,60.59199905395508,56.659000396728516)"><path fill="rgb(176,242,220)" fill-opacity="1" d=" M20.11400032043457,-33.18299865722656 C20.11400032043457,-33.18299865722656 -20.11400032043457,-9.956999778747559 -20.11400032043457,-9.956999778747559 C-20.11400032043457,-9.956999778747559 -20.11400032043457,33.18299865722656 -20.11400032043457,33.18299865722656 C-20.11400032043457,33.18299865722656 20.11400032043457,9.958000183105469 20.11400032043457,9.958000183105469 C20.11400032043457,9.958000183105469 20.11400032043457,-33.18299865722656 20.11400032043457,-33.18299865722656z"></path></g></g><g transform="matrix(0.9590893387794495,0,0,0.9590893387794495,899.2953491210938,407.8804931640625)" opacity="1" style="display: none;"><g opacity="1" transform="matrix(1,0,0,1,10.307000160217285,28.45400047302246)"><path fill="rgb(31,98,74)" fill-opacity="1" d=" M-10.057000160217285,-16.591999053955078 C-10.057000160217285,-16.591999053955078 10.057000160217285,-4.979000091552734 10.057000160217285,-4.979000091552734 C10.057000160217285,-4.979000091552734 10.057000160217285,16.591999053955078 10.057000160217285,16.591999053955078 C10.057000160217285,16.591999053955078 -10.057000160217285,4.979000091552734 -10.057000160217285,4.979000091552734 C-10.057000160217285,4.979000091552734 -10.057000160217285,-16.591999053955078 -10.057000160217285,-16.591999053955078z"></path></g><g opacity="1" transform="matrix(1,0,0,1,20.36400032043457,11.87600040435791)"><path fill="rgb(36,204,133)" fill-opacity="1" d=" M0,-11.62600040435791 C0,-11.62600040435791 20.11400032043457,-0.013000000268220901 20.11400032043457,-0.013000000268220901 C20.11400032043457,-0.013000000268220901 0,11.62600040435791 0,11.62600040435791 C0,11.62600040435791 -20.11400032043457,0.013000000268220901 -20.11400032043457,0.013000000268220901 C-20.11400032043457,0.013000000268220901 0,-11.62600040435791 0,-11.62600040435791z"></path></g><g opacity="1" transform="matrix(1,0,0,1,30.42099952697754,28.45400047302246)"><path fill="rgb(176,242,220)" fill-opacity="1" d=" M10.057000160217285,-16.591999053955078 C10.057000160217285,-16.591999053955078 -10.057000160217285,-4.979000091552734 -10.057000160217285,-4.979000091552734 C-10.057000160217285,-4.979000091552734 -10.057000160217285,16.591999053955078 -10.057000160217285,16.591999053955078 C-10.057000160217285,16.591999053955078 10.057000160217285,4.979000091552734 10.057000160217285,4.979000091552734 C10.057000160217285,4.979000091552734 10.057000160217285,-16.591999053955078 10.057000160217285,-16.591999053955078z"></path></g></g><g transform="matrix(0.9590893387794495,0,0,0.9590893387794495,919.2955932617188,419.57183837890625)" opacity="1" style="display: none;"><g opacity="1" transform="matrix(1,0,0,1,10.307000160217285,28.45400047302246)"><path fill="rgb(176,242,220)" fill-opacity="1" d=" M-10.057000160217285,-16.591999053955078 C-10.057000160217285,-16.591999053955078 -17.232999801635742,-22.049999237060547 -17.232999801635742,-22.049999237060547 C-17.232999801635742,-22.049999237060547 -17.690000534057617,9.640999794006348 -17.690000534057617,9.640999794006348 C-17.690000534057617,9.640999794006348 -9.585000038146973,6.90500020980835 -9.585000038146973,6.90500020980835 C-9.585000038146973,6.90500020980835 -10.057000160217285,-16.591999053955078 -10.057000160217285,-16.591999053955078z"></path></g><g opacity="1" transform="matrix(1,0,0,1,20.36400032043457,11.87600040435791)"><path fill="rgb(176,242,220)" fill-opacity="1" d=" M12.086000442504883,-18.000999450683594 C12.086000442504883,-18.000999450683594 10.519000053405762,-35.32899856567383 10.519000053405762,-35.32899856567383 C10.519000053405762,-35.32899856567383 -27.48200035095215,-14.491999626159668 -27.48200035095215,-14.491999626159668 C-27.48200035095215,-14.491999626159668 -27.479000091552734,3.9260001182556152 -27.479000091552734,3.9260001182556152 C-27.479000091552734,3.9260001182556152 12.086000442504883,-18.000999450683594 12.086000442504883,-18.000999450683594z"></path></g><g opacity="1" transform="matrix(1,0,0,1,0,0)"><path fill="rgb(31,98,74)" fill-opacity="1" d=" M-40.35100173950195,-21.365999221801758 C-40.35100173950195,-21.365999221801758 -41.928001403808594,19.510000228881836 -41.928001403808594,19.510000228881836 C-41.928001403808594,19.510000228881836 -7.493000030517578,39.224998474121094 -7.493000030517578,39.224998474121094 C-7.493000030517578,39.224998474121094 -6.9670000076293945,-2.7019999027252197 -6.9670000076293945,-2.7019999027252197 C-6.9670000076293945,-2.7019999027252197 -40.35100173950195,-21.365999221801758 -40.35100173950195,-21.365999221801758z"></path><path stroke-linecap="butt" stroke-linejoin="miter" fill-opacity="0" stroke-miterlimit="4" stroke="rgb(26,26,26)" stroke-opacity="1" stroke-width="0" d=" M-40.35100173950195,-21.365999221801758 C-40.35100173950195,-21.365999221801758 -41.928001403808594,19.510000228881836 -41.928001403808594,19.510000228881836 C-41.928001403808594,19.510000228881836 -7.493000030517578,39.224998474121094 -7.493000030517578,39.224998474121094 C-7.493000030517578,39.224998474121094 -6.9670000076293945,-2.7019999027252197 -6.9670000076293945,-2.7019999027252197 C-6.9670000076293945,-2.7019999027252197 -40.35100173950195,-21.365999221801758 -40.35100173950195,-21.365999221801758z"></path></g></g><g transform="matrix(0.9992349147796631,0,0,0.9992349147796631,586.5032348632812,102.34683227539062)" opacity="1" style="display: block;"><g opacity="1" transform="matrix(1,0,0,1,76.65299987792969,214.51800537109375)"><path fill="rgb(31,98,74)" fill-opacity="1" d=" M-76.4020004272461,-126.0459976196289 C-76.4020004272461,-126.0459976196289 76.4020004272461,-37.823001861572266 76.4020004272461,-37.823001861572266 C76.4020004272461,-37.823001861572266 76.4020004272461,126.0459976196289 76.4020004272461,126.0459976196289 C76.4020004272461,126.0459976196289 -76.4020004272461,37.82400131225586 -76.4020004272461,37.82400131225586 C-76.4020004272461,37.82400131225586 -76.4020004272461,-126.0459976196289 -76.4020004272461,-126.0459976196289z"></path></g><g opacity="1" transform="matrix(1,0,0,1,153.05499267578125,88.5719985961914)"><path fill="rgb(36,204,133)" fill-opacity="1" d=" M0,-88.3219985961914 C0,-88.3219985961914 152.80499267578125,-0.0989999994635582 152.80499267578125,-0.0989999994635582 C152.80499267578125,-0.0989999994635582 0,88.3219985961914 0,88.3219985961914 C0,88.3219985961914 -152.80499267578125,0.10000000149011612 -152.80499267578125,0.10000000149011612 C-152.80499267578125,0.10000000149011612 0,-88.3219985961914 0,-88.3219985961914z"></path></g><g opacity="1" transform="matrix(1,0,0,1,229.45799255371094,214.51800537109375)"><path fill="rgb(176,242,220)" fill-opacity="1" d=" M76.4020004272461,-126.0459976196289 C76.4020004272461,-126.0459976196289 -76.4020004272461,-37.823001861572266 -76.4020004272461,-37.823001861572266 C-76.4020004272461,-37.823001861572266 -76.4020004272461,126.0459976196289 -76.4020004272461,126.0459976196289 C-76.4020004272461,126.0459976196289 76.4020004272461,37.82400131225586 76.4020004272461,37.82400131225586 C76.4020004272461,37.82400131225586 76.4020004272461,-126.0459976196289 76.4020004272461,-126.0459976196289z"></path></g></g><g style="display: none;" transform="matrix(0.9999998211860657,0,0,0.9999998211860657,775.7160034179688,221.70350646972656)" opacity="1"><g opacity="1" transform="matrix(1,0,0,1,31.009000778198242,86.51200103759766)"><path fill="rgb(31,98,74)" fill-opacity="1" d=" M-30.759000778198242,-50.744998931884766 C-30.759000778198242,-50.744998931884766 30.759000778198242,-15.227999687194824 30.759000778198242,-15.227999687194824 C30.759000778198242,-15.227999687194824 30.759000778198242,50.744998931884766 30.759000778198242,50.744998931884766 C30.759000778198242,50.744998931884766 -30.759000778198242,15.227999687194824 -30.759000778198242,15.227999687194824 C-30.759000778198242,15.227999687194824 -30.759000778198242,-50.744998931884766 -30.759000778198242,-50.744998931884766z"></path></g><g opacity="1" transform="matrix(1,0,0,1,61.768001556396484,35.80699920654297)"><path fill="rgb(36,204,133)" fill-opacity="1" d=" M0,-35.55699920654297 C0,-35.55699920654297 61.518001556396484,-0.03999999910593033 61.518001556396484,-0.03999999910593033 C61.518001556396484,-0.03999999910593033 0,35.55699920654297 0,35.55699920654297 C0,35.55699920654297 -61.518001556396484,0.03999999910593033 -61.518001556396484,0.03999999910593033 C-61.518001556396484,0.03999999910593033 0,-35.55699920654297 0,-35.55699920654297z"></path></g><g opacity="1" transform="matrix(1,0,0,1,92.5270004272461,86.51200103759766)"><path fill="rgb(176,242,220)" fill-opacity="1" d=" M30.759000778198242,-50.744998931884766 C30.759000778198242,-50.744998931884766 -30.759000778198242,-15.227999687194824 -30.759000778198242,-15.227999687194824 C-30.759000778198242,-15.227999687194824 -30.759000778198242,50.744998931884766 -30.759000778198242,50.744998931884766 C-30.759000778198242,50.744998931884766 30.759000778198242,15.227999687194824 30.759000778198242,15.227999687194824 C30.759000778198242,15.227999687194824 30.759000778198242,-50.744998931884766 30.759000778198242,-50.744998931884766z"></path></g></g><g style="display: none;" transform="matrix(0.9871141910552979,0,0,0.9871141910552979,588.12255859375,104.74436950683594)" opacity="1"><g opacity="1" transform="matrix(1,0,0,1,76.65299987792969,214.51800537109375)"><path fill="rgb(31,98,74)" fill-opacity="1" d=" M-76.4020004272461,-126.0459976196289 C-76.4020004272461,-126.0459976196289 76.4020004272461,-37.823001861572266 76.4020004272461,-37.823001861572266 C76.4020004272461,-37.823001861572266 76.4020004272461,126.0459976196289 76.4020004272461,126.0459976196289 C76.4020004272461,126.0459976196289 -76.4020004272461,37.82400131225586 -76.4020004272461,37.82400131225586 C-76.4020004272461,37.82400131225586 -76.4020004272461,-126.0459976196289 -76.4020004272461,-126.0459976196289z"></path></g><g opacity="1" transform="matrix(1,0,0,1,153.05499267578125,88.5719985961914)"><path fill="rgb(36,204,133)" fill-opacity="1" d=" M0,-88.3219985961914 C0,-88.3219985961914 152.80499267578125,-0.0989999994635582 152.80499267578125,-0.0989999994635582 C152.80499267578125,-0.0989999994635582 0,88.3219985961914 0,88.3219985961914 C0,88.3219985961914 -152.80499267578125,0.10000000149011612 -152.80499267578125,0.10000000149011612 C-152.80499267578125,0.10000000149011612 0,-88.3219985961914 0,-88.3219985961914z"></path></g><g opacity="1" transform="matrix(1,0,0,1,229.45799255371094,214.51800537109375)"><path fill="rgb(176,242,220)" fill-opacity="1" d=" M-39.143001556396484,-59.106998443603516 C-39.143001556396484,-59.106998443603516 -76.4020004272461,-37.823001861572266 -76.4020004272461,-37.823001861572266 C-76.4020004272461,-37.823001861572266 -76.4020004272461,126.0459976196289 -76.4020004272461,126.0459976196289 C-76.4020004272461,126.0459976196289 -39.143001556396484,104.76200103759766 -39.143001556396484,104.76200103759766 C-39.143001556396484,104.76200103759766 -39.143001556396484,-59.106998443603516 -39.143001556396484,-59.106998443603516z"></path></g></g><g transform="matrix(0.9992349147796631,0,0,0.9992349147796631,775.6734008789062,221.76339721679688)" opacity="1" style="display: block;"><g opacity="1" transform="matrix(1,0,0,1,31.009000778198242,86.51200103759766)"><path fill="rgb(31,98,74)" fill-opacity="1" d=" M-30.759000778198242,-50.744998931884766 C-30.759000778198242,-50.744998931884766 30.759000778198242,-15.227999687194824 30.759000778198242,-15.227999687194824 C30.759000778198242,-15.227999687194824 30.759000778198242,50.744998931884766 30.759000778198242,50.744998931884766 C30.759000778198242,50.744998931884766 -30.759000778198242,15.227999687194824 -30.759000778198242,15.227999687194824 C-30.759000778198242,15.227999687194824 -30.759000778198242,-50.744998931884766 -30.759000778198242,-50.744998931884766z"></path></g><g opacity="1" transform="matrix(1,0,0,1,61.768001556396484,35.80699920654297)"><path fill="rgb(36,204,133)" fill-opacity="1" d=" M0,-35.55699920654297 C0,-35.55699920654297 61.518001556396484,-0.03999999910593033 61.518001556396484,-0.03999999910593033 C61.518001556396484,-0.03999999910593033 0,35.55699920654297 0,35.55699920654297 C0,35.55699920654297 -61.518001556396484,0.03999999910593033 -61.518001556396484,0.03999999910593033 C-61.518001556396484,0.03999999910593033 0,-35.55699920654297 0,-35.55699920654297z"></path></g><g opacity="1" transform="matrix(1,0,0,1,92.5270004272461,86.51200103759766)"><path fill="rgb(176,242,220)" fill-opacity="1" d=" M30.759000778198242,-50.744998931884766 C30.759000778198242,-50.744998931884766 -30.759000778198242,-15.227999687194824 -30.759000778198242,-15.227999687194824 C-30.759000778198242,-15.227999687194824 -30.759000778198242,50.744998931884766 -30.759000778198242,50.744998931884766 C-30.759000778198242,50.744998931884766 30.759000778198242,15.227999687194824 30.759000778198242,15.227999687194824 C30.759000778198242,15.227999687194824 30.759000778198242,-50.744998931884766 30.759000778198242,-50.744998931884766z"></path></g></g><g style="display: none;" transform="matrix(0.9000208377838135,0,0,0.9000208377838135,599.7581176757812,121.97181701660156)" opacity="1"><g opacity="1" transform="matrix(1,0,0,1,76.65299987792969,214.51800537109375)"><path fill="rgb(31,98,74)" fill-opacity="1" d=" M-76.4020004272461,-126.0459976196289 C-76.4020004272461,-126.0459976196289 76.4020004272461,-37.823001861572266 76.4020004272461,-37.823001861572266 C76.4020004272461,-37.823001861572266 76.4020004272461,126.0459976196289 76.4020004272461,126.0459976196289 C76.4020004272461,126.0459976196289 -76.4020004272461,37.82400131225586 -76.4020004272461,37.82400131225586 C-76.4020004272461,37.82400131225586 -76.4020004272461,-126.0459976196289 -76.4020004272461,-126.0459976196289z"></path></g><g opacity="1" transform="matrix(1,0,0,1,153.05499267578125,88.5719985961914)"><path fill="rgb(36,204,133)" fill-opacity="1" d=" M0,-88.3219985961914 C0,-88.3219985961914 152.80499267578125,-0.0989999994635582 152.80499267578125,-0.0989999994635582 C152.80499267578125,-0.0989999994635582 0,88.3219985961914 0,88.3219985961914 C0,88.3219985961914 -152.80499267578125,0.10000000149011612 -152.80499267578125,0.10000000149011612 C-152.80499267578125,0.10000000149011612 0,-88.3219985961914 0,-88.3219985961914z"></path></g><g opacity="1" transform="matrix(1,0,0,1,229.45799255371094,214.51800537109375)"><path fill="rgb(176,242,220)" fill-opacity="1" d=" M-39.143001556396484,-59.106998443603516 C-39.143001556396484,-59.106998443603516 -76.4020004272461,-37.823001861572266 -76.4020004272461,-37.823001861572266 C-76.4020004272461,-37.823001861572266 -76.4020004272461,126.0459976196289 -76.4020004272461,126.0459976196289 C-76.4020004272461,126.0459976196289 -39.143001556396484,104.76200103759766 -39.143001556396484,104.76200103759766 C-39.143001556396484,104.76200103759766 -39.143001556396484,-59.106998443603516 -39.143001556396484,-59.106998443603516z"></path></g></g><g transform="matrix(0.9992291927337646,0,0,0.9992291927337646,730.4165649414062,335.61431884765625)" opacity="1" style="display: block;"><g opacity="1" transform="matrix(1,0,0,1,31.009000778198242,86.51200103759766)"><path fill="rgb(31,98,74)" fill-opacity="1" d=" M-30.759000778198242,-50.744998931884766 C-30.759000778198242,-50.744998931884766 30.759000778198242,-15.227999687194824 30.759000778198242,-15.227999687194824 C30.759000778198242,-15.227999687194824 30.759000778198242,50.744998931884766 30.759000778198242,50.744998931884766 C30.759000778198242,50.744998931884766 -30.759000778198242,15.227999687194824 -30.759000778198242,15.227999687194824 C-30.759000778198242,15.227999687194824 -30.759000778198242,-50.744998931884766 -30.759000778198242,-50.744998931884766z"></path></g><g opacity="1" transform="matrix(1,0,0,1,61.768001556396484,35.80699920654297)"><path fill="rgb(36,204,133)" fill-opacity="1" d=" M0,-35.55699920654297 C0,-35.55699920654297 61.518001556396484,-0.03999999910593033 61.518001556396484,-0.03999999910593033 C61.518001556396484,-0.03999999910593033 0,35.55699920654297 0,35.55699920654297 C0,35.55699920654297 -61.518001556396484,0.03999999910593033 -61.518001556396484,0.03999999910593033 C-61.518001556396484,0.03999999910593033 0,-35.55699920654297 0,-35.55699920654297z"></path></g><g opacity="1" transform="matrix(1,0,0,1,92.5270004272461,86.51200103759766)"><path fill="rgb(176,242,220)" fill-opacity="1" d=" M30.759000778198242,-50.744998931884766 C30.759000778198242,-50.744998931884766 -30.759000778198242,-15.227999687194824 -30.759000778198242,-15.227999687194824 C-30.759000778198242,-15.227999687194824 -30.759000778198242,50.744998931884766 -30.759000778198242,50.744998931884766 C-30.759000778198242,50.744998931884766 30.759000778198242,15.227999687194824 30.759000778198242,15.227999687194824 C30.759000778198242,15.227999687194824 30.759000778198242,-50.744998931884766 30.759000778198242,-50.744998931884766z"></path></g></g><g transform="matrix(0.9992291927337646,0,0,0.9992291927337646,738.7371826171875,340.77044677734375)" opacity="1" style="display: block;"><g opacity="1" transform="matrix(1,0,0,1,31.009000778198242,86.51200103759766)"><path fill="rgb(31,98,74)" fill-opacity="1" d=" M-31.260000228881836,-136.41400146484375 C-31.260000228881836,-136.41400146484375 -109.00700378417969,-182.30299377441406 -109.00700378417969,-182.30299377441406 C-109.00700378417969,-182.30299377441406 -105.08799743652344,-28.68600082397461 -105.08799743652344,-28.68600082397461 C-105.08799743652344,-28.68600082397461 -30.759000778198242,15.227999687194824 -30.759000778198242,15.227999687194824 C-30.759000778198242,15.227999687194824 -31.260000228881836,-136.41400146484375 -31.260000228881836,-136.41400146484375z"></path></g><g opacity="1" transform="matrix(1,0,0,1,61.768001556396484,35.80699920654297)"><path fill="rgb(176,242,220)" fill-opacity="1" d=" M3.25600004196167,-35.80699920654297 C3.25600004196167,-35.80699920654297 -37.56700134277344,-59.816001892089844 -37.56700134277344,-59.816001892089844 C-37.56700134277344,-59.816001892089844 -61.358001708984375,-84.4469985961914 -61.358001708984375,-84.4469985961914 C-61.358001708984375,-84.4469985961914 -61.518001556396484,0.03999999910593033 -61.518001556396484,0.03999999910593033 C-61.518001556396484,0.03999999910593033 3.25600004196167,-35.80699920654297 3.25600004196167,-35.80699920654297z"></path></g></g><g transform="matrix(0.9212347865104675,0,0,0.9212347865104675,765.6810302734375,352.99688720703125)" opacity="1" style="display: none;"><g opacity="1" transform="matrix(1,0,0,1,31.009000778198242,86.51200103759766)"><path fill="rgb(31,98,74)" fill-opacity="1" d=" M-30.759000778198242,-50.744998931884766 C-30.759000778198242,-50.744998931884766 30.759000778198242,-15.227999687194824 30.759000778198242,-15.227999687194824 C30.759000778198242,-15.227999687194824 30.759000778198242,50.744998931884766 30.759000778198242,50.744998931884766 C30.759000778198242,50.744998931884766 -30.759000778198242,15.227999687194824 -30.759000778198242,15.227999687194824 C-30.759000778198242,15.227999687194824 -30.759000778198242,-50.744998931884766 -30.759000778198242,-50.744998931884766z"></path></g><g opacity="1" transform="matrix(1,0,0,1,61.768001556396484,35.80699920654297)"><path fill="rgb(36,204,133)" fill-opacity="1" d=" M0,-35.55699920654297 C0,-35.55699920654297 61.518001556396484,-0.03999999910593033 61.518001556396484,-0.03999999910593033 C61.518001556396484,-0.03999999910593033 0,35.55699920654297 0,35.55699920654297 C0,35.55699920654297 -61.518001556396484,0.03999999910593033 -61.518001556396484,0.03999999910593033 C-61.518001556396484,0.03999999910593033 0,-35.55699920654297 0,-35.55699920654297z"></path></g><g opacity="1" transform="matrix(1,0,0,1,92.5270004272461,86.51200103759766)"><path fill="rgb(176,242,220)" fill-opacity="1" d=" M30.759000778198242,-50.744998931884766 C30.759000778198242,-50.744998931884766 -30.759000778198242,-15.227999687194824 -30.759000778198242,-15.227999687194824 C-30.759000778198242,-15.227999687194824 -30.759000778198242,50.744998931884766 -30.759000778198242,50.744998931884766 C-30.759000778198242,50.744998931884766 30.759000778198242,15.227999687194824 30.759000778198242,15.227999687194824 C30.759000778198242,15.227999687194824 30.759000778198242,-50.744998931884766 30.759000778198242,-50.744998931884766z"></path></g></g><g transform="matrix(0.9014464616775513,0,0,0.9014464616775513,682.017333984375,305.0069885253906)" opacity="1" style="display: none;"><g opacity="1" transform="matrix(1,0,0,1,31.009000778198242,86.51200103759766)"><path fill="rgb(31,98,74)" fill-opacity="1" d=" M-30.759000778198242,-50.744998931884766 C-30.759000778198242,-50.744998931884766 30.759000778198242,-15.227999687194824 30.759000778198242,-15.227999687194824 C30.759000778198242,-15.227999687194824 30.759000778198242,50.744998931884766 30.759000778198242,50.744998931884766 C30.759000778198242,50.744998931884766 -30.759000778198242,15.227999687194824 -30.759000778198242,15.227999687194824 C-30.759000778198242,15.227999687194824 -30.759000778198242,-50.744998931884766 -30.759000778198242,-50.744998931884766z"></path></g><g opacity="1" transform="matrix(1,0,0,1,61.768001556396484,35.80699920654297)"><path fill="rgb(36,204,133)" fill-opacity="1" d=" M0,-35.55699920654297 C0,-35.55699920654297 61.518001556396484,-0.03999999910593033 61.518001556396484,-0.03999999910593033 C61.518001556396484,-0.03999999910593033 0,35.55699920654297 0,35.55699920654297 C0,35.55699920654297 -61.518001556396484,0.03999999910593033 -61.518001556396484,0.03999999910593033 C-61.518001556396484,0.03999999910593033 0,-35.55699920654297 0,-35.55699920654297z"></path></g><g opacity="1" transform="matrix(1,0,0,1,92.5270004272461,86.51200103759766)"><path fill="rgb(176,242,220)" fill-opacity="1" d=" M30.759000778198242,-50.744998931884766 C30.759000778198242,-50.744998931884766 -30.759000778198242,-15.227999687194824 -30.759000778198242,-15.227999687194824 C-30.759000778198242,-15.227999687194824 -30.759000778198242,50.744998931884766 -30.759000778198242,50.744998931884766 C-30.759000778198242,50.744998931884766 30.759000778198242,15.227999687194824 30.759000778198242,15.227999687194824 C30.759000778198242,15.227999687194824 30.759000778198242,-50.744998931884766 30.759000778198242,-50.744998931884766z"></path></g></g><g transform="matrix(0.9014516472816467,0,0,0.9014516472816467,736.9031372070312,336.7814636230469)" opacity="1" style="display: none;"><g opacity="1" transform="matrix(1,0,0,1,31.009000778198242,86.51200103759766)"><path fill="rgb(31,98,74)" fill-opacity="1" d=" M-30.759000778198242,-50.744998931884766 C-30.759000778198242,-50.744998931884766 -30.85700035095215,-130.11199951171875 -30.85700035095215,-130.11199951171875 C-30.85700035095215,-130.11199951171875 -131.04100036621094,-64.10900115966797 -131.04100036621094,-64.10900115966797 C-131.04100036621094,-64.10900115966797 -29.857999801635742,15.574000358581543 -29.857999801635742,15.574000358581543 C-29.857999801635742,15.574000358581543 -30.759000778198242,-50.744998931884766 -30.759000778198242,-50.744998931884766z"></path></g><g opacity="1" transform="matrix(1,0,0,1,61.768001556396484,35.80699920654297)"><path fill="rgb(176,242,220)" fill-opacity="1" d=" M0,-35.55699920654297 C0,-35.55699920654297 -43.159000396728516,-64.46199798583984 -43.159000396728516,-64.46199798583984 C-43.159000396728516,-64.46199798583984 -61.590999603271484,-79.55799865722656 -61.590999603271484,-79.55799865722656 C-61.590999603271484,-79.55799865722656 -61.518001556396484,0.03999999910593033 -61.518001556396484,0.03999999910593033 C-61.518001556396484,0.03999999910593033 0,-35.55699920654297 0,-35.55699920654297z"></path></g></g><g transform="matrix(1.4065412282943726,0,0,1.4065412282943726,769.3305053710938,380.3201904296875)" opacity="1" style="display: none;"><g opacity="1" transform="matrix(1,0,0,1,10.307000160217285,28.45400047302246)"><path fill="rgb(31,98,74)" fill-opacity="1" d=" M-10.057000160217285,-16.591999053955078 C-10.057000160217285,-16.591999053955078 10.057000160217285,-4.979000091552734 10.057000160217285,-4.979000091552734 C10.057000160217285,-4.979000091552734 10.057000160217285,16.591999053955078 10.057000160217285,16.591999053955078 C10.057000160217285,16.591999053955078 -10.057000160217285,4.979000091552734 -10.057000160217285,4.979000091552734 C-10.057000160217285,4.979000091552734 -10.057000160217285,-16.591999053955078 -10.057000160217285,-16.591999053955078z"></path></g><g opacity="1" transform="matrix(1,0,0,1,20.36400032043457,11.87600040435791)"><path fill="rgb(36,204,133)" fill-opacity="1" d=" M0,-11.62600040435791 C0,-11.62600040435791 20.11400032043457,-0.013000000268220901 20.11400032043457,-0.013000000268220901 C20.11400032043457,-0.013000000268220901 0,11.62600040435791 0,11.62600040435791 C0,11.62600040435791 -20.11400032043457,0.013000000268220901 -20.11400032043457,0.013000000268220901 C-20.11400032043457,0.013000000268220901 0,-11.62600040435791 0,-11.62600040435791z"></path></g><g opacity="1" transform="matrix(1,0,0,1,30.42099952697754,28.45400047302246)"><path fill="rgb(176,242,220)" fill-opacity="1" d=" M10.057000160217285,-16.591999053955078 C10.057000160217285,-16.591999053955078 -10.057000160217285,-4.979000091552734 -10.057000160217285,-4.979000091552734 C-10.057000160217285,-4.979000091552734 -10.057000160217285,16.591999053955078 -10.057000160217285,16.591999053955078 C-10.057000160217285,16.591999053955078 10.057000160217285,4.979000091552734 10.057000160217285,4.979000091552734 C10.057000160217285,4.979000091552734 10.057000160217285,-16.591999053955078 10.057000160217285,-16.591999053955078z"></path></g></g><g transform="matrix(1.4065412282943726,0,0,1.4065412282943726,814.2194213867188,405.5780029296875)" opacity="1" style="display: none;"><g opacity="1" transform="matrix(1,0,0,1,10.307000160217285,28.45400047302246)"><path fill="rgb(31,98,74)" fill-opacity="1" d=" M-10.057000160217285,-16.591999053955078 C-10.057000160217285,-16.591999053955078 10.057000160217285,-4.979000091552734 10.057000160217285,-4.979000091552734 C10.057000160217285,-4.979000091552734 10.057000160217285,16.591999053955078 10.057000160217285,16.591999053955078 C10.057000160217285,16.591999053955078 -10.057000160217285,4.979000091552734 -10.057000160217285,4.979000091552734 C-10.057000160217285,4.979000091552734 -10.057000160217285,-16.591999053955078 -10.057000160217285,-16.591999053955078z"></path></g><g opacity="1" transform="matrix(1,0,0,1,20.36400032043457,11.87600040435791)"><path fill="rgb(36,204,133)" fill-opacity="1" d=" M0,-11.62600040435791 C0,-11.62600040435791 20.11400032043457,-0.013000000268220901 20.11400032043457,-0.013000000268220901 C20.11400032043457,-0.013000000268220901 0,11.62600040435791 0,11.62600040435791 C0,11.62600040435791 -20.11400032043457,0.013000000268220901 -20.11400032043457,0.013000000268220901 C-20.11400032043457,0.013000000268220901 0,-11.62600040435791 0,-11.62600040435791z"></path></g><g opacity="1" transform="matrix(1,0,0,1,30.42099952697754,28.45400047302246)"><path fill="rgb(176,242,220)" fill-opacity="1" d=" M10.057000160217285,-16.591999053955078 C10.057000160217285,-16.591999053955078 -10.057000160217285,-4.979000091552734 -10.057000160217285,-4.979000091552734 C-10.057000160217285,-4.979000091552734 -10.057000160217285,16.591999053955078 -10.057000160217285,16.591999053955078 C-10.057000160217285,16.591999053955078 10.057000160217285,4.979000091552734 10.057000160217285,4.979000091552734 C10.057000160217285,4.979000091552734 10.057000160217285,-16.591999053955078 10.057000160217285,-16.591999053955078z"></path></g></g><g transform="matrix(1.4661945104599,0,0,1.4661945104599,763.0964965820312,379.1661376953125)" opacity="1" style="display: none;"><g opacity="1" transform="matrix(1,0,0,1,10.307000160217285,28.45400047302246)"><path fill="rgb(31,98,74)" fill-opacity="1" d=" M-10.057000160217285,-16.591999053955078 C-10.057000160217285,-16.591999053955078 10.057000160217285,-4.979000091552734 10.057000160217285,-4.979000091552734 C10.057000160217285,-4.979000091552734 10.057000160217285,16.591999053955078 10.057000160217285,16.591999053955078 C10.057000160217285,16.591999053955078 -10.057000160217285,4.979000091552734 -10.057000160217285,4.979000091552734 C-10.057000160217285,4.979000091552734 -10.057000160217285,-16.591999053955078 -10.057000160217285,-16.591999053955078z"></path></g><g opacity="1" transform="matrix(1,0,0,1,20.36400032043457,11.87600040435791)"><path fill="rgb(36,204,133)" fill-opacity="1" d=" M0,-11.62600040435791 C0,-11.62600040435791 20.11400032043457,-0.013000000268220901 20.11400032043457,-0.013000000268220901 C20.11400032043457,-0.013000000268220901 0,11.62600040435791 0,11.62600040435791 C0,11.62600040435791 -20.11400032043457,0.013000000268220901 -20.11400032043457,0.013000000268220901 C-20.11400032043457,0.013000000268220901 0,-11.62600040435791 0,-11.62600040435791z"></path></g><g opacity="1" transform="matrix(1,0,0,1,30.42099952697754,28.45400047302246)"><path fill="rgb(176,242,220)" fill-opacity="1" d=" M10.057000160217285,-16.591999053955078 C10.057000160217285,-16.591999053955078 -10.057000160217285,-4.979000091552734 -10.057000160217285,-4.979000091552734 C-10.057000160217285,-4.979000091552734 -10.057000160217285,16.591999053955078 -10.057000160217285,16.591999053955078 C-10.057000160217285,16.591999053955078 10.057000160217285,4.979000091552734 10.057000160217285,4.979000091552734 C10.057000160217285,4.979000091552734 10.057000160217285,-16.591999053955078 10.057000160217285,-16.591999053955078z"></path></g></g><g transform="matrix(1.4661945104599,0,0,1.4661945104599,809.9036865234375,405.50335693359375)" opacity="1" style="display: none;"><g opacity="1" transform="matrix(1,0,0,1,10.307000160217285,28.45400047302246)"><path fill="rgb(31,98,74)" fill-opacity="1" d=" M-10.057000160217285,-16.591999053955078 C-10.057000160217285,-16.591999053955078 10.057000160217285,-4.979000091552734 10.057000160217285,-4.979000091552734 C10.057000160217285,-4.979000091552734 10.057000160217285,16.591999053955078 10.057000160217285,16.591999053955078 C10.057000160217285,16.591999053955078 -10.057000160217285,4.979000091552734 -10.057000160217285,4.979000091552734 C-10.057000160217285,4.979000091552734 -10.057000160217285,-16.591999053955078 -10.057000160217285,-16.591999053955078z"></path></g><g opacity="1" transform="matrix(1,0,0,1,20.36400032043457,11.87600040435791)"><path fill="rgb(36,204,133)" fill-opacity="1" d=" M0,-11.62600040435791 C0,-11.62600040435791 20.11400032043457,-0.013000000268220901 20.11400032043457,-0.013000000268220901 C20.11400032043457,-0.013000000268220901 0,11.62600040435791 0,11.62600040435791 C0,11.62600040435791 -20.11400032043457,0.013000000268220901 -20.11400032043457,0.013000000268220901 C-20.11400032043457,0.013000000268220901 0,-11.62600040435791 0,-11.62600040435791z"></path></g><g opacity="1" transform="matrix(1,0,0,1,30.42099952697754,28.45400047302246)"><path fill="rgb(176,242,220)" fill-opacity="1" d=" M10.057000160217285,-16.591999053955078 C10.057000160217285,-16.591999053955078 -10.057000160217285,-4.979000091552734 -10.057000160217285,-4.979000091552734 C-10.057000160217285,-4.979000091552734 -10.057000160217285,16.591999053955078 -10.057000160217285,16.591999053955078 C-10.057000160217285,16.591999053955078 10.057000160217285,4.979000091552734 10.057000160217285,4.979000091552734 C10.057000160217285,4.979000091552734 10.057000160217285,-16.591999053955078 10.057000160217285,-16.591999053955078z"></path></g></g><g style="display: none;" transform="matrix(0.9036558270454407,0,0,0.9036558270454407,766.1657104492188,352.728515625)" opacity="1"><g opacity="1" transform="matrix(1,0,0,1,31.009000778198242,86.51200103759766)"><path fill="rgb(31,98,74)" fill-opacity="1" d=" M-30.759000778198242,-50.744998931884766 C-30.759000778198242,-50.744998931884766 30.759000778198242,-15.227999687194824 30.759000778198242,-15.227999687194824 C30.759000778198242,-15.227999687194824 30.759000778198242,50.744998931884766 30.759000778198242,50.744998931884766 C30.759000778198242,50.744998931884766 -30.759000778198242,15.227999687194824 -30.759000778198242,15.227999687194824 C-30.759000778198242,15.227999687194824 -30.759000778198242,-50.744998931884766 -30.759000778198242,-50.744998931884766z"></path></g><g opacity="1" transform="matrix(1,0,0,1,61.768001556396484,35.80699920654297)"><path fill="rgb(36,204,133)" fill-opacity="1" d=" M0,-35.55699920654297 C0,-35.55699920654297 61.518001556396484,-0.03999999910593033 61.518001556396484,-0.03999999910593033 C61.518001556396484,-0.03999999910593033 0,35.55699920654297 0,35.55699920654297 C0,35.55699920654297 -61.518001556396484,0.03999999910593033 -61.518001556396484,0.03999999910593033 C-61.518001556396484,0.03999999910593033 0,-35.55699920654297 0,-35.55699920654297z"></path></g><g opacity="1" transform="matrix(1,0,0,1,92.5270004272461,86.51200103759766)"><path fill="rgb(176,242,220)" fill-opacity="1" d=" M30.759000778198242,-50.744998931884766 C30.759000778198242,-50.744998931884766 -30.759000778198242,-15.227999687194824 -30.759000778198242,-15.227999687194824 C-30.759000778198242,-15.227999687194824 -30.759000778198242,50.744998931884766 -30.759000778198242,50.744998931884766 C-30.759000778198242,50.744998931884766 30.759000778198242,15.227999687194824 30.759000778198242,15.227999687194824 C30.759000778198242,15.227999687194824 30.759000778198242,-50.744998931884766 30.759000778198242,-50.744998931884766z"></path></g></g><g transform="matrix(0.9424071311950684,0,0,0.9424071311950684,769.2098999023438,355.5727233886719)" opacity="1" style="display: none;"><g opacity="1" transform="matrix(1,0,0,1,31.009000778198242,86.51200103759766)"><path fill="rgb(31,98,74)" fill-opacity="1" d=" M-30.759000778198242,-50.744998931884766 C-30.759000778198242,-50.744998931884766 30.759000778198242,-15.227999687194824 30.759000778198242,-15.227999687194824 C30.759000778198242,-15.227999687194824 30.759000778198242,50.744998931884766 30.759000778198242,50.744998931884766 C30.759000778198242,50.744998931884766 -30.759000778198242,15.227999687194824 -30.759000778198242,15.227999687194824 C-30.759000778198242,15.227999687194824 -30.759000778198242,-50.744998931884766 -30.759000778198242,-50.744998931884766z"></path></g><g opacity="1" transform="matrix(1,0,0,1,61.768001556396484,35.80699920654297)"><path fill="rgb(36,204,133)" fill-opacity="1" d=" M0,-35.55699920654297 C0,-35.55699920654297 61.518001556396484,-0.03999999910593033 61.518001556396484,-0.03999999910593033 C61.518001556396484,-0.03999999910593033 0,35.55699920654297 0,35.55699920654297 C0,35.55699920654297 -61.518001556396484,0.03999999910593033 -61.518001556396484,0.03999999910593033 C-61.518001556396484,0.03999999910593033 0,-35.55699920654297 0,-35.55699920654297z"></path></g><g opacity="1" transform="matrix(1,0,0,1,92.5270004272461,86.51200103759766)"><path fill="rgb(176,242,220)" fill-opacity="1" d=" M30.759000778198242,-50.744998931884766 C30.759000778198242,-50.744998931884766 -30.759000778198242,-15.227999687194824 -30.759000778198242,-15.227999687194824 C-30.759000778198242,-15.227999687194824 -30.759000778198242,50.744998931884766 -30.759000778198242,50.744998931884766 C-30.759000778198242,50.744998931884766 30.759000778198242,15.227999687194824 30.759000778198242,15.227999687194824 C30.759000778198242,15.227999687194824 30.759000778198242,-50.744998931884766 30.759000778198242,-50.744998931884766z"></path></g></g><g style="display: none;" transform="matrix(0.9972453117370605,0,0,0.9972453117370605,678.5087890625,305.8412780761719)" opacity="1"><g opacity="1" transform="matrix(1,0,0,1,31.009000778198242,86.51200103759766)"><path fill="rgb(31,98,74)" fill-opacity="1" d=" M-30.759000778198242,-50.744998931884766 C-30.759000778198242,-50.744998931884766 30.759000778198242,-15.227999687194824 30.759000778198242,-15.227999687194824 C30.759000778198242,-15.227999687194824 30.759000778198242,50.744998931884766 30.759000778198242,50.744998931884766 C30.759000778198242,50.744998931884766 -30.759000778198242,15.227999687194824 -30.759000778198242,15.227999687194824 C-30.759000778198242,15.227999687194824 -30.759000778198242,-50.744998931884766 -30.759000778198242,-50.744998931884766z"></path></g><g opacity="1" transform="matrix(1,0,0,1,61.768001556396484,35.80699920654297)"><path fill="rgb(36,204,133)" fill-opacity="1" d=" M0,-35.55699920654297 C0,-35.55699920654297 61.518001556396484,-0.03999999910593033 61.518001556396484,-0.03999999910593033 C61.518001556396484,-0.03999999910593033 0,35.55699920654297 0,35.55699920654297 C0,35.55699920654297 -61.518001556396484,0.03999999910593033 -61.518001556396484,0.03999999910593033 C-61.518001556396484,0.03999999910593033 0,-35.55699920654297 0,-35.55699920654297z"></path></g><g opacity="1" transform="matrix(1,0,0,1,92.5270004272461,86.51200103759766)"><path fill="rgb(176,242,220)" fill-opacity="1" d=" M30.759000778198242,-50.744998931884766 C30.759000778198242,-50.744998931884766 -30.759000778198242,-15.227999687194824 -30.759000778198242,-15.227999687194824 C-30.759000778198242,-15.227999687194824 -30.759000778198242,50.744998931884766 -30.759000778198242,50.744998931884766 C-30.759000778198242,50.744998931884766 30.759000778198242,15.227999687194824 30.759000778198242,15.227999687194824 C30.759000778198242,15.227999687194824 30.759000778198242,-50.744998931884766 30.759000778198242,-50.744998931884766z"></path></g></g><g style="display: none;" transform="matrix(0.997251033782959,0,0,0.997251033782959,738.699462890625,340.6903381347656)" opacity="1"><g opacity="1" transform="matrix(1,0,0,1,31.009000778198242,86.51200103759766)"><path fill="rgb(31,98,74)" fill-opacity="1" d=" M-30.507999420166016,-134.08700561523438 C-30.507999420166016,-134.08700561523438 -100.74099731445312,-143.97799682617188 -100.74099731445312,-143.97799682617188 C-100.74099731445312,-143.97799682617188 -102.5479965209961,-28.493999481201172 -102.5479965209961,-28.493999481201172 C-102.5479965209961,-28.493999481201172 -30.759000778198242,15.227999687194824 -30.759000778198242,15.227999687194824 C-30.759000778198242,15.227999687194824 -30.507999420166016,-134.08700561523438 -30.507999420166016,-134.08700561523438z"></path></g><g opacity="1" transform="matrix(1,0,0,1,61.768001556396484,35.80699920654297)"><path fill="rgb(176,242,220)" fill-opacity="1" d=" M0,-37.816001892089844 C0,-37.816001892089844 -44.04999923706055,-65.48400115966797 -44.04999923706055,-65.48400115966797 C-44.04999923706055,-65.48400115966797 -60.95399856567383,-94.74500274658203 -60.95399856567383,-94.74500274658203 C-60.95399856567383,-94.74500274658203 -61.518001556396484,0.03999999910593033 -61.518001556396484,0.03999999910593033 C-61.518001556396484,0.03999999910593033 0,-37.816001892089844 0,-37.816001892089844z"></path></g></g><g style="display: none;" transform="matrix(1.5349504947662354,0,0,1.5349504947662354,779.600341796875,390.8113708496094)" opacity="1"><g opacity="1" transform="matrix(1,0,0,1,10.307000160217285,28.45400047302246)"><path fill="rgb(31,98,74)" fill-opacity="1" d=" M-10.057000160217285,-16.591999053955078 C-10.057000160217285,-16.591999053955078 10.057000160217285,-4.979000091552734 10.057000160217285,-4.979000091552734 C10.057000160217285,-4.979000091552734 10.057000160217285,16.591999053955078 10.057000160217285,16.591999053955078 C10.057000160217285,16.591999053955078 -10.057000160217285,4.979000091552734 -10.057000160217285,4.979000091552734 C-10.057000160217285,4.979000091552734 -10.057000160217285,-16.591999053955078 -10.057000160217285,-16.591999053955078z"></path></g><g opacity="1" transform="matrix(1,0,0,1,20.36400032043457,11.87600040435791)"><path fill="rgb(36,204,133)" fill-opacity="1" d=" M0,-11.62600040435791 C0,-11.62600040435791 20.11400032043457,-0.013000000268220901 20.11400032043457,-0.013000000268220901 C20.11400032043457,-0.013000000268220901 0,11.62600040435791 0,11.62600040435791 C0,11.62600040435791 -20.11400032043457,0.013000000268220901 -20.11400032043457,0.013000000268220901 C-20.11400032043457,0.013000000268220901 0,-11.62600040435791 0,-11.62600040435791z"></path></g><g opacity="1" transform="matrix(1,0,0,1,30.42099952697754,28.45400047302246)"><path fill="rgb(176,242,220)" fill-opacity="1" d=" M10.057000160217285,-16.591999053955078 C10.057000160217285,-16.591999053955078 -10.057000160217285,-4.979000091552734 -10.057000160217285,-4.979000091552734 C-10.057000160217285,-4.979000091552734 -10.057000160217285,16.591999053955078 -10.057000160217285,16.591999053955078 C-10.057000160217285,16.591999053955078 10.057000160217285,4.979000091552734 10.057000160217285,4.979000091552734 C10.057000160217285,4.979000091552734 10.057000160217285,-16.591999053955078 10.057000160217285,-16.591999053955078z"></path></g></g><g style="display: none;" transform="matrix(1.5349504947662354,0,0,1.5349504947662354,828.7361450195312,418.459716796875)" opacity="1"><g opacity="1" transform="matrix(1,0,0,1,10.307000160217285,28.45400047302246)"><path fill="rgb(31,98,74)" fill-opacity="1" d=" M-10.057000160217285,-16.591999053955078 C-10.057000160217285,-16.591999053955078 10.057000160217285,-4.979000091552734 10.057000160217285,-4.979000091552734 C10.057000160217285,-4.979000091552734 10.057000160217285,16.591999053955078 10.057000160217285,16.591999053955078 C10.057000160217285,16.591999053955078 -10.057000160217285,4.979000091552734 -10.057000160217285,4.979000091552734 C-10.057000160217285,4.979000091552734 -10.057000160217285,-16.591999053955078 -10.057000160217285,-16.591999053955078z"></path></g><g opacity="1" transform="matrix(1,0,0,1,20.36400032043457,11.87600040435791)"><path fill="rgb(36,204,133)" fill-opacity="1" d=" M0,-11.62600040435791 C0,-11.62600040435791 20.11400032043457,-0.013000000268220901 20.11400032043457,-0.013000000268220901 C20.11400032043457,-0.013000000268220901 0,11.62600040435791 0,11.62600040435791 C0,11.62600040435791 -20.11400032043457,0.013000000268220901 -20.11400032043457,0.013000000268220901 C-20.11400032043457,0.013000000268220901 0,-11.62600040435791 0,-11.62600040435791z"></path></g><g opacity="1" transform="matrix(1,0,0,1,30.42099952697754,28.45400047302246)"><path fill="rgb(176,242,220)" fill-opacity="1" d=" M10.057000160217285,-16.591999053955078 C10.057000160217285,-16.591999053955078 -10.057000160217285,-4.979000091552734 -10.057000160217285,-4.979000091552734 C-10.057000160217285,-4.979000091552734 -10.057000160217285,16.591999053955078 -10.057000160217285,16.591999053955078 C-10.057000160217285,16.591999053955078 10.057000160217285,4.979000091552734 10.057000160217285,4.979000091552734 C10.057000160217285,4.979000091552734 10.057000160217285,-16.591999053955078 10.057000160217285,-16.591999053955078z"></path></g></g><g style="display: none;" transform="matrix(1.4295097589492798,0,0,1.4295097589492798,759.5174560546875,375.81561279296875)" opacity="1"><g opacity="1" transform="matrix(1,0,0,1,10.307000160217285,28.45400047302246)"><path fill="rgb(31,98,74)" fill-opacity="1" d=" M-10.057000160217285,-16.591999053955078 C-10.057000160217285,-16.591999053955078 10.057000160217285,-4.979000091552734 10.057000160217285,-4.979000091552734 C10.057000160217285,-4.979000091552734 10.057000160217285,16.591999053955078 10.057000160217285,16.591999053955078 C10.057000160217285,16.591999053955078 -10.057000160217285,4.979000091552734 -10.057000160217285,4.979000091552734 C-10.057000160217285,4.979000091552734 -10.057000160217285,-16.591999053955078 -10.057000160217285,-16.591999053955078z"></path></g><g opacity="1" transform="matrix(1,0,0,1,20.36400032043457,11.87600040435791)"><path fill="rgb(36,204,133)" fill-opacity="1" d=" M0,-11.62600040435791 C0,-11.62600040435791 20.11400032043457,-0.013000000268220901 20.11400032043457,-0.013000000268220901 C20.11400032043457,-0.013000000268220901 0,11.62600040435791 0,11.62600040435791 C0,11.62600040435791 -20.11400032043457,0.013000000268220901 -20.11400032043457,0.013000000268220901 C-20.11400032043457,0.013000000268220901 0,-11.62600040435791 0,-11.62600040435791z"></path></g><g opacity="1" transform="matrix(1,0,0,1,30.42099952697754,28.45400047302246)"><path fill="rgb(176,242,220)" fill-opacity="1" d=" M10.057000160217285,-16.591999053955078 C10.057000160217285,-16.591999053955078 -10.057000160217285,-4.979000091552734 -10.057000160217285,-4.979000091552734 C-10.057000160217285,-4.979000091552734 -10.057000160217285,16.591999053955078 -10.057000160217285,16.591999053955078 C-10.057000160217285,16.591999053955078 10.057000160217285,4.979000091552734 10.057000160217285,4.979000091552734 C10.057000160217285,4.979000091552734 10.057000160217285,-16.591999053955078 10.057000160217285,-16.591999053955078z"></path></g></g><g style="display: none;" transform="matrix(1.4295097589492798,0,0,1.4295097589492798,805.1207885742188,401.4752502441406)" opacity="1"><g opacity="1" transform="matrix(1,0,0,1,10.307000160217285,28.45400047302246)"><path fill="rgb(31,98,74)" fill-opacity="1" d=" M-10.057000160217285,-16.591999053955078 C-10.057000160217285,-16.591999053955078 10.057000160217285,-4.979000091552734 10.057000160217285,-4.979000091552734 C10.057000160217285,-4.979000091552734 10.057000160217285,16.591999053955078 10.057000160217285,16.591999053955078 C10.057000160217285,16.591999053955078 -10.057000160217285,4.979000091552734 -10.057000160217285,4.979000091552734 C-10.057000160217285,4.979000091552734 -10.057000160217285,-16.591999053955078 -10.057000160217285,-16.591999053955078z"></path></g><g opacity="1" transform="matrix(1,0,0,1,20.36400032043457,11.87600040435791)"><path fill="rgb(36,204,133)" fill-opacity="1" d=" M0,-11.62600040435791 C0,-11.62600040435791 20.11400032043457,-0.013000000268220901 20.11400032043457,-0.013000000268220901 C20.11400032043457,-0.013000000268220901 0,11.62600040435791 0,11.62600040435791 C0,11.62600040435791 -20.11400032043457,0.013000000268220901 -20.11400032043457,0.013000000268220901 C-20.11400032043457,0.013000000268220901 0,-11.62600040435791 0,-11.62600040435791z"></path></g><g opacity="1" transform="matrix(1,0,0,1,30.42099952697754,28.45400047302246)"><path fill="rgb(176,242,220)" fill-opacity="1" d=" M10.057000160217285,-16.591999053955078 C10.057000160217285,-16.591999053955078 -10.057000160217285,-4.979000091552734 -10.057000160217285,-4.979000091552734 C-10.057000160217285,-4.979000091552734 -10.057000160217285,16.591999053955078 -10.057000160217285,16.591999053955078 C-10.057000160217285,16.591999053955078 10.057000160217285,4.979000091552734 10.057000160217285,4.979000091552734 C10.057000160217285,4.979000091552734 10.057000160217285,-16.591999053955078 10.057000160217285,-16.591999053955078z"></path></g></g><g transform="matrix(0.9014867544174194,0,0,0.9014867544174194,627.16552734375,251.36375427246094)" opacity="1" style="display: none;"><g opacity="1" transform="matrix(1,0,0,1,31.009000778198242,86.51200103759766)"><path fill="rgb(31,98,74)" fill-opacity="1" d=" M-30.759000778198242,-50.744998931884766 C-30.759000778198242,-50.744998931884766 30.759000778198242,-15.227999687194824 30.759000778198242,-15.227999687194824 C30.759000778198242,-15.227999687194824 30.759000778198242,50.744998931884766 30.759000778198242,50.744998931884766 C30.759000778198242,50.744998931884766 -30.759000778198242,15.227999687194824 -30.759000778198242,15.227999687194824 C-30.759000778198242,15.227999687194824 -30.759000778198242,-50.744998931884766 -30.759000778198242,-50.744998931884766z"></path></g><g opacity="1" transform="matrix(1,0,0,1,61.768001556396484,35.80699920654297)"><path fill="rgb(36,204,133)" fill-opacity="1" d=" M0,-35.55699920654297 C0,-35.55699920654297 61.518001556396484,-0.03999999910593033 61.518001556396484,-0.03999999910593033 C61.518001556396484,-0.03999999910593033 0,35.55699920654297 0,35.55699920654297 C0,35.55699920654297 -61.518001556396484,0.03999999910593033 -61.518001556396484,0.03999999910593033 C-61.518001556396484,0.03999999910593033 0,-35.55699920654297 0,-35.55699920654297z"></path></g><g opacity="1" transform="matrix(1,0,0,1,92.5270004272461,86.51200103759766)"><path fill="rgb(176,242,220)" fill-opacity="1" d=" M30.759000778198242,-50.744998931884766 C30.759000778198242,-50.744998931884766 -30.759000778198242,-15.227999687194824 -30.759000778198242,-15.227999687194824 C-30.759000778198242,-15.227999687194824 -30.759000778198242,50.744998931884766 -30.759000778198242,50.744998931884766 C-30.759000778198242,50.744998931884766 30.759000778198242,15.227999687194824 30.759000778198242,15.227999687194824 C30.759000778198242,15.227999687194824 30.759000778198242,-50.744998931884766 30.759000778198242,-50.744998931884766z"></path></g></g><g style="display: none;" transform="matrix(0.9014867544174194,0,0,0.9014867544174194,607.3640747070312,262.7961730957031)" opacity="1"><g opacity="1" transform="matrix(1,0,0,1,92.5270004272461,86.51200103759766)"><path fill="rgb(31,98,74)" fill-opacity="1" d=" M30.759000778198242,-50.744998931884766 C30.759000778198242,-50.744998931884766 49.189998626708984,-66.125 49.189998626708984,-66.125 C49.189998626708984,-66.125 51.428001403808594,72.46600341796875 51.428001403808594,72.46600341796875 C51.428001403808594,72.46600341796875 30.759000778198242,15.227999687194824 30.759000778198242,15.227999687194824 C30.759000778198242,15.227999687194824 30.759000778198242,-50.744998931884766 30.759000778198242,-50.744998931884766z"></path></g></g><g style="display: none;" transform="matrix(0.9014867544174194,0,0,0.9014867544174194,607.3640747070312,262.7961730957031)" opacity="1"><g opacity="1" transform="matrix(1,0,0,1,92.5270004272461,86.51200103759766)"><path fill="rgb(31,98,74)" fill-opacity="1" d=" M-32.492000579833984,-86.95500183105469 C-32.492000579833984,-86.95500183105469 30.966999053955078,-50.744998931884766 30.966999053955078,-50.744998931884766 C30.966999053955078,-50.744998931884766 51.27799987792969,-65.427001953125 51.27799987792969,-65.427001953125 C51.27799987792969,-65.427001953125 -49.08100128173828,-121.22200012207031 -49.08100128173828,-121.22200012207031 C-49.08100128173828,-121.22200012207031 -32.492000579833984,-86.95500183105469 -32.492000579833984,-86.95500183105469z M30.759000778198242,-50.744998931884766 C30.759000778198242,-50.744998931884766 51.54800033569336,-65.01499938964844 51.54800033569336,-65.01499938964844 C51.54800033569336,-65.01499938964844 51.428001403808594,72.46600341796875 51.428001403808594,72.46600341796875 C51.428001403808594,72.46600341796875 30.759000778198242,15.227999687194824 30.759000778198242,15.227999687194824 C30.759000778198242,15.227999687194824 30.759000778198242,-50.744998931884766 30.759000778198242,-50.744998931884766z"></path></g></g><g transform="matrix(0.9044230580329895,0,0,0.9044230580329895,735.472900390625,124.63552856445312)" opacity="1" style="display: none;"><g opacity="1" transform="matrix(1,0,0,1,19.82900047302246,55.15800094604492)"><path fill="rgb(31,98,74)" fill-opacity="1" d=" M-19.577999114990234,-32.29999923706055 C-19.577999114990234,-32.29999923706055 19.577999114990234,-9.692999839782715 19.577999114990234,-9.692999839782715 C19.577999114990234,-9.692999839782715 19.577999114990234,32.29999923706055 19.577999114990234,32.29999923706055 C19.577999114990234,32.29999923706055 -19.577999114990234,9.692000389099121 -19.577999114990234,9.692000389099121 C-19.577999114990234,9.692000389099121 -19.577999114990234,-32.29999923706055 -19.577999114990234,-32.29999923706055z"></path></g><g opacity="1" transform="matrix(1,0,0,1,39.40700149536133,22.882999420166016)"><path fill="rgb(36,204,133)" fill-opacity="1" d=" M0,-22.632999420166016 C0,-22.632999420166016 39.15700149536133,-0.026000000536441803 39.15700149536133,-0.026000000536441803 C39.15700149536133,-0.026000000536441803 0,22.632999420166016 0,22.632999420166016 C0,22.632999420166016 -39.15700149536133,0.02500000037252903 -39.15700149536133,0.02500000037252903 C-39.15700149536133,0.02500000037252903 0,-22.632999420166016 0,-22.632999420166016z"></path></g><g opacity="1" transform="matrix(1,0,0,1,58.986000061035156,55.15800094604492)"><path fill="rgb(176,242,220)" fill-opacity="1" d=" M19.57900047302246,-32.29999923706055 C19.57900047302246,-32.29999923706055 -19.57900047302246,-9.692999839782715 -19.57900047302246,-9.692999839782715 C-19.57900047302246,-9.692999839782715 -19.57900047302246,32.29999923706055 -19.57900047302246,32.29999923706055 C-19.57900047302246,32.29999923706055 19.57900047302246,9.692000389099121 19.57900047302246,9.692000389099121 C19.57900047302246,9.692000389099121 19.57900047302246,-32.29999923706055 19.57900047302246,-32.29999923706055z"></path></g></g><g transform="matrix(0.9044230580329895,0,0,0.9044230580329895,735.472900390625,124.63552856445312)" opacity="1" style="display: none;"><g opacity="1" transform="matrix(1,0,0,1,19.82900047302246,55.15800094604492)"><path fill="rgb(36,204,133)" fill-opacity="1" d=" M-84.7030029296875,19.075000762939453 C-84.7030029296875,19.075000762939453 18.827999114990234,92.68199920654297 18.827999114990234,92.68199920654297 C18.827999114990234,92.68199920654297 19.577999114990234,32.29999923706055 19.577999114990234,32.29999923706055 C19.577999114990234,32.29999923706055 -19.57900047302246,9.692000389099121 -19.57900047302246,9.692000389099121 C-19.57900047302246,9.692000389099121 -84.7030029296875,19.075000762939453 -84.7030029296875,19.075000762939453z"></path></g><g opacity="1" transform="matrix(1,0,0,1,58.986000061035156,55.15800094604492)"><path fill="rgb(36,204,133)" fill-opacity="1" d=" M61.45399856567383,42.32500076293945 C61.45399856567383,42.32500076293945 -22.57900047302246,80.05699920654297 -22.57900047302246,80.05699920654297 C-22.57900047302246,80.05699920654297 -19.57900047302246,32.29999923706055 -19.57900047302246,32.29999923706055 C-19.57900047302246,32.29999923706055 19.57900047302246,9.692000389099121 19.57900047302246,9.692000389099121 C19.57900047302246,9.692000389099121 61.45399856567383,42.32500076293945 61.45399856567383,42.32500076293945z"></path></g></g><g transform="matrix(0.9999998211860657,0,0,0.9999998211860657,643.2850341796875,248.2864990234375)" opacity="1" style="display: none;"><g opacity="1" transform="matrix(1,0,0,1,19.82900047302246,55.15800094604492)"><path fill="rgb(31,98,74)" fill-opacity="1" d=" M-19.577999114990234,-32.29999923706055 C-19.577999114990234,-32.29999923706055 19.577999114990234,-9.692999839782715 19.577999114990234,-9.692999839782715 C19.577999114990234,-9.692999839782715 19.577999114990234,32.29999923706055 19.577999114990234,32.29999923706055 C19.577999114990234,32.29999923706055 -19.577999114990234,9.692000389099121 -19.577999114990234,9.692000389099121 C-19.577999114990234,9.692000389099121 -19.577999114990234,-32.29999923706055 -19.577999114990234,-32.29999923706055z"></path></g><g opacity="1" transform="matrix(1,0,0,1,39.40700149536133,22.882999420166016)"><path fill="rgb(36,204,133)" fill-opacity="1" d=" M0,-22.632999420166016 C0,-22.632999420166016 39.15700149536133,-0.026000000536441803 39.15700149536133,-0.026000000536441803 C39.15700149536133,-0.026000000536441803 0,22.632999420166016 0,22.632999420166016 C0,22.632999420166016 -39.15700149536133,0.02500000037252903 -39.15700149536133,0.02500000037252903 C-39.15700149536133,0.02500000037252903 0,-22.632999420166016 0,-22.632999420166016z"></path></g><g opacity="1" transform="matrix(1,0,0,1,58.986000061035156,55.15800094604492)"><path fill="rgb(176,242,220)" fill-opacity="1" d=" M19.57900047302246,-32.29999923706055 C19.57900047302246,-32.29999923706055 -19.57900047302246,-9.692999839782715 -19.57900047302246,-9.692999839782715 C-19.57900047302246,-9.692999839782715 -19.57900047302246,32.29999923706055 -19.57900047302246,32.29999923706055 C-19.57900047302246,32.29999923706055 19.57900047302246,9.692000389099121 19.57900047302246,9.692000389099121 C19.57900047302246,9.692000389099121 19.57900047302246,-32.29999923706055 19.57900047302246,-32.29999923706055z"></path></g></g><g transform="matrix(1.0004897117614746,0,0,1.0004897117614746,643.2476806640625,159.08804321289062)" opacity="1" style="display: none;"><g opacity="1" transform="matrix(1,0,0,1,58.986000061035156,55.15800094604492)"><path fill="rgb(36,204,133)" fill-opacity="1" d=" M81.74600219726562,30.59000015258789 C81.74600219726562,30.59000015258789 29.933000564575195,60.986000061035156 29.933000564575195,60.986000061035156 C29.933000564575195,60.986000061035156 -18.47800064086914,32.78900146484375 -18.47800064086914,32.78900146484375 C-18.47800064086914,32.78900146484375 40.97100067138672,-1.5540000200271606 40.97100067138672,-1.5540000200271606 C40.97100067138672,-1.5540000200271606 81.74600219726562,30.59000015258789 81.74600219726562,30.59000015258789z"></path></g><g opacity="1" transform="matrix(1,0,0,1,19.82900047302246,55.15800094604492)"><path fill="rgb(31,98,74)" fill-opacity="1" d=" M-75.16899871826172,102.56600189208984 C-75.16899871826172,102.56600189208984 72.1259994506836,145.61300659179688 72.1259994506836,145.61300659179688 C72.1259994506836,145.61300659179688 69.5739974975586,61.150001525878906 69.5739974975586,61.150001525878906 C69.5739974975586,61.150001525878906 -33.45399856567383,1.8079999685287476 -33.45399856567383,1.8079999685287476 C-33.45399856567383,1.8079999685287476 -75.16899871826172,102.56600189208984 -75.16899871826172,102.56600189208984z"></path></g></g><g transform="matrix(1.0000033378601074,0,0,1.0000033378601074,857.0858154296875,281.0209655761719)" opacity="1" style="display: none;"><g opacity="1" transform="matrix(1,0,0,1,15.630000114440918,43.38100051879883)"><path fill="rgb(31,98,74)" fill-opacity="1" d=" M-15.378999710083008,-25.371999740600586 C-15.378999710083008,-25.371999740600586 15.378999710083008,-7.61299991607666 15.378999710083008,-7.61299991607666 C15.378999710083008,-7.61299991607666 15.378999710083008,25.371999740600586 15.378999710083008,25.371999740600586 C15.378999710083008,25.371999740600586 -15.378999710083008,7.613999843597412 -15.378999710083008,7.613999843597412 C-15.378999710083008,7.613999843597412 -15.378999710083008,-25.371999740600586 -15.378999710083008,-25.371999740600586z"></path></g><g opacity="1" transform="matrix(1,0,0,1,31.009000778198242,18.02899932861328)"><path fill="rgb(36,204,133)" fill-opacity="1" d=" M0,-17.77899932861328 C0,-17.77899932861328 30.759000778198242,-0.019999999552965164 30.759000778198242,-0.019999999552965164 C30.759000778198242,-0.019999999552965164 0,17.77899932861328 0,17.77899932861328 C0,17.77899932861328 -30.759000778198242,0.020999999716877937 -30.759000778198242,0.020999999716877937 C-30.759000778198242,0.020999999716877937 0,-17.77899932861328 0,-17.77899932861328z"></path></g><g opacity="1" transform="matrix(1,0,0,1,46.38800048828125,43.38100051879883)"><path fill="rgb(176,242,220)" fill-opacity="1" d=" M15.380000114440918,-25.371999740600586 C15.380000114440918,-25.371999740600586 -15.380000114440918,-7.61299991607666 -15.380000114440918,-7.61299991607666 C-15.380000114440918,-7.61299991607666 -15.380000114440918,25.371999740600586 -15.380000114440918,25.371999740600586 C-15.380000114440918,25.371999740600586 15.380000114440918,7.613999843597412 15.380000114440918,7.613999843597412 C15.380000114440918,7.613999843597412 15.380000114440918,-25.371999740600586 15.380000114440918,-25.371999740600586z"></path></g></g><g transform="matrix(0.9992384910583496,0,0,0.9992384910583496,856.98095703125,280.96514892578125)" opacity="1" style="display: block;"><g opacity="1" transform="matrix(1,0,0,1,15.630000114440918,43.38100051879883)"><path fill="rgb(31,98,74)" fill-opacity="1" d=" M-15.378999710083008,-25.371999740600586 C-15.378999710083008,-25.371999740600586 15.378999710083008,-7.61299991607666 15.378999710083008,-7.61299991607666 C15.378999710083008,-7.61299991607666 15.378999710083008,25.371999740600586 15.378999710083008,25.371999740600586 C15.378999710083008,25.371999740600586 -15.378999710083008,7.613999843597412 -15.378999710083008,7.613999843597412 C-15.378999710083008,7.613999843597412 -15.378999710083008,-25.371999740600586 -15.378999710083008,-25.371999740600586z"></path></g><g opacity="1" transform="matrix(1,0,0,1,31.009000778198242,18.02899932861328)"><path fill="rgb(36,204,133)" fill-opacity="1" d=" M0,-17.77899932861328 C0,-17.77899932861328 30.759000778198242,-0.019999999552965164 30.759000778198242,-0.019999999552965164 C30.759000778198242,-0.019999999552965164 0,17.77899932861328 0,17.77899932861328 C0,17.77899932861328 -30.759000778198242,0.020999999716877937 -30.759000778198242,0.020999999716877937 C-30.759000778198242,0.020999999716877937 0,-17.77899932861328 0,-17.77899932861328z"></path></g><g opacity="1" transform="matrix(1,0,0,1,46.38800048828125,43.38100051879883)"><path fill="rgb(176,242,220)" fill-opacity="1" d=" M15.380000114440918,-25.371999740600586 C15.380000114440918,-25.371999740600586 -15.380000114440918,-7.61299991607666 -15.380000114440918,-7.61299991607666 C-15.380000114440918,-7.61299991607666 -15.380000114440918,25.371999740600586 -15.380000114440918,25.371999740600586 C-15.380000114440918,25.371999740600586 15.380000114440918,7.613999843597412 15.380000114440918,7.613999843597412 C15.380000114440918,7.613999843597412 15.380000114440918,-25.371999740600586 15.380000114440918,-25.371999740600586z"></path></g></g><g transform="matrix(0.9992349147796631,0,0,0.9992349147796631,-50.88238525390625,-23.1988525390625)" opacity="1" style="display: block;"><g opacity="1" transform="matrix(1,0,0,1,10.307000160217285,28.45400047302246)"><path fill="rgb(31,98,74)" fill-opacity="1" d=" M-10.057000160217285,-16.591999053955078 C-10.057000160217285,-16.591999053955078 10.057000160217285,-4.979000091552734 10.057000160217285,-4.979000091552734 C10.057000160217285,-4.979000091552734 10.057000160217285,16.591999053955078 10.057000160217285,16.591999053955078 C10.057000160217285,16.591999053955078 -10.057000160217285,4.979000091552734 -10.057000160217285,4.979000091552734 C-10.057000160217285,4.979000091552734 -10.057000160217285,-16.591999053955078 -10.057000160217285,-16.591999053955078z"></path></g><g opacity="1" transform="matrix(1,0,0,1,20.36400032043457,11.87600040435791)"><path fill="rgb(36,204,133)" fill-opacity="1" d=" M0,-11.62600040435791 C0,-11.62600040435791 20.11400032043457,-0.013000000268220901 20.11400032043457,-0.013000000268220901 C20.11400032043457,-0.013000000268220901 0,11.62600040435791 0,11.62600040435791 C0,11.62600040435791 -20.11400032043457,0.013000000268220901 -20.11400032043457,0.013000000268220901 C-20.11400032043457,0.013000000268220901 0,-11.62600040435791 0,-11.62600040435791z"></path></g><g opacity="1" transform="matrix(1,0,0,1,30.42099952697754,28.45400047302246)"><path fill="rgb(176,242,220)" fill-opacity="1" d=" M10.057000160217285,-16.591999053955078 C10.057000160217285,-16.591999053955078 -10.057000160217285,-4.979000091552734 -10.057000160217285,-4.979000091552734 C-10.057000160217285,-4.979000091552734 -10.057000160217285,16.591999053955078 -10.057000160217285,16.591999053955078 C-10.057000160217285,16.591999053955078 10.057000160217285,4.979000091552734 10.057000160217285,4.979000091552734 C10.057000160217285,4.979000091552734 10.057000160217285,-16.591999053955078 10.057000160217285,-16.591999053955078z"></path></g></g></g></svg>