<svg width="588" height="445" viewBox="0 0 588 445" fill="none" xmlns="http://www.w3.org/2000/svg">
<g clip-path="url(#clip0_47_2)">
<mask id="mask0_47_2" style="mask-type:luminance" maskUnits="userSpaceOnUse" x="0" y="0" width="588" height="445">
<path d="M588 0H0V445H588V0Z" fill="white"/>
</mask>
<g mask="url(#mask0_47_2)">
<path d="M210.146 66.9687C209.364 66.1874 209.364 64.9186 210.153 64.1445C241.006 33.879 280.044 13.2539 322.485 4.82174C365.582 -3.74069 410.253 0.65386 450.85 17.4497C491.447 34.2455 526.145 62.6882 550.557 99.181C574.97 135.674 588 178.578 588 222.467C588 266.357 574.97 309.261 550.557 345.754C526.145 382.247 491.446 410.689 450.85 427.485C410.253 444.281 365.582 448.675 322.485 440.113C280.043 431.681 241.006 411.056 210.153 380.79C209.364 380.016 209.364 378.747 210.146 377.966L364.412 223.882C365.194 223.101 365.194 221.834 364.412 221.052L210.146 66.9687Z" fill="#000B33"/>
<mask id="mask1_47_2" style="mask-type:luminance" maskUnits="userSpaceOnUse" x="209" y="0" width="379" height="445">
<path d="M210.146 66.9687C209.364 66.1874 209.364 64.9186 210.153 64.1445C241.006 33.879 280.044 13.2539 322.485 4.82174C365.582 -3.74069 410.253 0.65386 450.85 17.4497C491.447 34.2455 526.145 62.6882 550.557 99.181C574.97 135.674 588 178.578 588 222.467C588 266.357 574.97 309.261 550.557 345.754C526.145 382.247 491.446 410.689 450.85 427.485C410.253 444.281 365.582 448.675 322.485 440.113C280.043 431.681 241.006 411.056 210.153 380.79C209.364 380.016 209.364 378.747 210.146 377.966L364.412 223.882C365.194 223.101 365.194 221.834 364.412 221.052L210.146 66.9687Z" fill="white"/>
</mask>
<g mask="url(#mask1_47_2)">
<path d="M210.146 66.9687C209.364 66.1874 209.364 64.9186 210.153 64.1445C241.006 33.879 280.044 13.2539 322.485 4.82174C365.582 -3.74069 410.253 0.65386 450.85 17.4497C491.447 34.2455 526.145 62.6882 550.557 99.181C574.97 135.674 588 178.578 588 222.467C588 266.357 574.97 309.261 550.557 345.754C526.145 382.247 491.446 410.689 450.85 427.485C410.253 444.281 365.582 448.675 322.485 440.113C280.043 431.681 241.006 411.056 210.153 380.79C209.364 380.016 209.364 378.747 210.146 377.966L364.412 223.882C365.194 223.101 365.194 221.834 364.412 221.052L210.146 66.9687Z" stroke="#1F51FF" stroke-width="8"/>
</g>
<path d="M177.717 374.028C176.895 374.765 175.631 374.698 174.901 373.87C156.052 352.523 141.486 327.748 132.004 300.893C122.523 274.039 118.307 245.62 119.579 217.186C119.628 216.082 120.571 215.236 121.674 215.295L336.703 226.832C338.483 226.927 339.258 229.127 337.931 230.317L177.717 374.028Z" fill="#000B33"/>
<mask id="mask2_47_2" style="mask-type:luminance" maskUnits="userSpaceOnUse" x="119" y="215" width="220" height="160">
<path d="M177.717 374.028C176.895 374.765 175.631 374.698 174.901 373.87C156.052 352.523 141.486 327.748 132.004 300.893C122.523 274.039 118.307 245.62 119.579 217.186C119.628 216.082 120.571 215.236 121.674 215.295L336.703 226.832C338.483 226.927 339.258 229.127 337.931 230.317L177.717 374.028Z" fill="white"/>
</mask>
<g mask="url(#mask2_47_2)">
<path d="M177.717 374.028C176.895 374.765 175.631 374.698 174.901 373.87C156.052 352.523 141.486 327.748 132.004 300.893C122.523 274.039 118.307 245.62 119.579 217.186C119.628 216.082 120.571 215.236 121.674 215.295L336.703 226.832C338.483 226.927 339.258 229.127 337.931 230.317L177.717 374.028Z" stroke="#1F51FF" stroke-width="8"/>
</g>
<path d="M104.549 195.391C103.447 195.313 102.616 194.356 102.704 193.255C104.692 168.373 110.87 144.003 120.976 121.174C121.422 120.164 122.607 119.719 123.613 120.174L313.994 206.305C316.027 207.225 315.254 210.279 313.028 210.122L104.549 195.391Z" fill="#000B33"/>
<mask id="mask3_47_2" style="mask-type:luminance" maskUnits="userSpaceOnUse" x="102" y="119" width="214" height="92">
<path d="M104.549 195.391C103.447 195.313 102.616 194.356 102.704 193.255C104.692 168.373 110.87 144.003 120.976 121.174C121.422 120.164 122.607 119.719 123.613 120.174L313.994 206.305C316.027 207.225 315.254 210.279 313.028 210.122L104.549 195.391Z" fill="white"/>
</mask>
<g mask="url(#mask3_47_2)">
<path d="M104.549 195.391C103.447 195.313 102.616 194.356 102.704 193.255C104.692 168.373 110.87 144.003 120.976 121.174C121.422 120.164 122.607 119.719 123.613 120.174L313.994 206.305C316.027 207.225 315.254 210.279 313.028 210.122L104.549 195.391Z" stroke="#1F51FF" stroke-width="8"/>
</g>
<path d="M147.603 106.787C146.629 106.264 146.263 105.05 146.796 104.081C154.071 90.8509 162.678 78.3966 172.485 66.9118C173.201 66.0725 174.464 65.9843 175.298 66.7075L327.962 199.141C329.765 200.705 327.808 203.543 325.706 202.414L147.603 106.787Z" fill="#000B33"/>
<mask id="mask4_47_2" style="mask-type:luminance" maskUnits="userSpaceOnUse" x="146" y="66" width="183" height="137">
<path d="M147.603 106.787C146.629 106.264 146.263 105.05 146.796 104.081C154.071 90.8509 162.678 78.3966 172.485 66.9118C173.201 66.0725 174.464 65.9843 175.298 66.7075L327.962 199.141C329.765 200.705 327.808 203.543 325.706 202.414L147.603 106.787Z" fill="white"/>
</mask>
<g mask="url(#mask4_47_2)">
<path d="M147.603 106.787C146.629 106.264 146.263 105.05 146.796 104.081C154.071 90.8509 162.678 78.3966 172.485 66.9118C173.201 66.0725 174.464 65.9843 175.298 66.7075L327.962 199.141C329.765 200.705 327.808 203.543 325.706 202.414L147.603 106.787Z" stroke="#1F51FF" stroke-width="8"/>
</g>
<path d="M420.824 187.8H422.008V197.976H428.28V199H420.824V187.8ZM430.246 187.8H431.43V199H430.246V187.8ZM446.354 199.944C446.013 200.36 445.607 200.675 445.138 200.888C444.679 201.112 444.178 201.224 443.634 201.224C442.973 201.224 442.343 201.059 441.746 200.728C441.159 200.408 440.498 199.864 439.762 199.096C438.685 199.064 437.714 198.797 436.85 198.296C435.986 197.795 435.309 197.117 434.818 196.264C434.327 195.411 434.082 194.456 434.082 193.4C434.082 192.323 434.333 191.352 434.834 190.488C435.346 189.624 436.05 188.947 436.946 188.456C437.853 187.955 438.861 187.704 439.97 187.704C441.079 187.704 442.077 187.949 442.962 188.44C443.858 188.931 444.562 189.613 445.074 190.488C445.586 191.352 445.842 192.323 445.842 193.4C445.842 194.339 445.645 195.203 445.25 195.992C444.866 196.771 444.322 197.421 443.618 197.944C442.925 198.467 442.125 198.813 441.218 198.984C442.039 199.848 442.85 200.28 443.65 200.28C444.482 200.28 445.191 199.939 445.778 199.256L446.354 199.944ZM435.25 193.4C435.25 194.275 435.453 195.064 435.858 195.768C436.274 196.472 436.839 197.027 437.554 197.432C438.279 197.837 439.085 198.04 439.97 198.04C440.855 198.04 441.655 197.837 442.37 197.432C443.085 197.027 443.645 196.472 444.05 195.768C444.455 195.064 444.658 194.275 444.658 193.4C444.658 192.525 444.455 191.736 444.05 191.032C443.645 190.328 443.085 189.773 442.37 189.368C441.655 188.963 440.855 188.76 439.97 188.76C439.085 188.76 438.279 188.963 437.554 189.368C436.839 189.773 436.274 190.328 435.858 191.032C435.453 191.736 435.25 192.525 435.25 193.4ZM453.008 199.096C451.557 199.096 450.427 198.68 449.616 197.848C448.805 197.016 448.4 195.805 448.4 194.216V187.8H449.584V194.168C449.584 195.469 449.877 196.44 450.464 197.08C451.051 197.72 451.899 198.04 453.008 198.04C454.128 198.04 454.981 197.72 455.568 197.08C456.155 196.44 456.448 195.469 456.448 194.168V187.8H457.6V194.216C457.6 195.805 457.195 197.016 456.384 197.848C455.584 198.68 454.459 199.096 453.008 199.096ZM461.168 187.8H462.352V199H461.168V187.8ZM465.996 187.8H470.556C471.74 187.8 472.785 188.04 473.692 188.52C474.599 188.989 475.303 189.651 475.804 190.504C476.305 191.347 476.556 192.312 476.556 193.4C476.556 194.488 476.305 195.459 475.804 196.312C475.303 197.155 474.599 197.816 473.692 198.296C472.785 198.765 471.74 199 470.556 199H465.996V187.8ZM470.492 197.976C471.473 197.976 472.332 197.784 473.068 197.4C473.804 197.005 474.375 196.467 474.78 195.784C475.185 195.091 475.388 194.296 475.388 193.4C475.388 192.504 475.185 191.715 474.78 191.032C474.375 190.339 473.804 189.8 473.068 189.416C472.332 189.021 471.473 188.824 470.492 188.824H467.18V197.976H470.492ZM479.215 187.8H480.399V199H479.215V187.8ZM486.219 188.824H482.283V187.8H491.339V188.824H487.403V199H486.219V188.824ZM496.992 195.128V199H495.824V195.128L491.344 187.8H492.608L496.448 194.088L500.288 187.8H501.472L496.992 195.128Z" fill="white"/>
<path d="M417.84 218H441.8V223.8L432.48 246H422.16L431.04 225.32H425.64V229.4H417.84V218ZM454.795 227.88C463.075 227.88 466.235 231.84 466.235 236.8C466.235 241.8 462.395 246.64 453.435 246.64C449.595 246.64 445.395 245.8 442.395 244.12L445.595 237.16C447.995 238.56 450.715 239.2 453.075 239.2C455.195 239.2 456.755 238.44 456.755 237C456.755 235.8 455.915 235 452.515 235H444.395L445.795 218H464.395V225.12H453.555L453.355 227.88H454.795ZM474.65 233.2C470.41 233.2 467.21 230.4 467.21 225.4C467.21 220.44 470.41 217.6 474.65 217.6C478.89 217.6 482.09 220.44 482.09 225.4C482.09 230.4 478.89 233.2 474.65 233.2ZM471.97 246L491.09 218H497.85L478.73 246H471.97ZM474.65 228.88C475.53 228.88 476.41 228.08 476.41 225.4C476.41 222.72 475.53 221.92 474.65 221.92C473.77 221.92 472.89 222.72 472.89 225.4C472.89 228.08 473.77 228.88 474.65 228.88ZM495.17 246.4C490.93 246.4 487.73 243.6 487.73 238.6C487.73 233.64 490.93 230.8 495.17 230.8C499.41 230.8 502.61 233.64 502.61 238.6C502.61 243.6 499.41 246.4 495.17 246.4ZM495.17 242.08C496.05 242.08 496.93 241.28 496.93 238.6C496.93 235.92 496.05 235.12 495.17 235.12C494.29 235.12 493.41 235.92 493.41 238.6C493.41 241.28 494.29 242.08 495.17 242.08Z" fill="white"/>
<path d="M37.348 281.008H31.108L29.764 284H28.532L33.652 272.8H34.82L39.94 284H38.692L37.348 281.008ZM36.916 280.048L34.228 274.032L31.54 280.048H36.916ZM41.7928 272.8H42.9768V284H41.7928V272.8ZM54.2689 284L51.7089 280.4C51.4209 280.432 51.1222 280.448 50.8129 280.448H47.8049V284H46.6209V272.8H50.8129C52.2422 272.8 53.3622 273.141 54.1729 273.824C54.9835 274.507 55.3889 275.445 55.3889 276.64C55.3889 277.515 55.1649 278.256 54.7169 278.864C54.2795 279.461 53.6502 279.893 52.8289 280.16L55.5649 284H54.2689ZM50.7809 279.44C51.8902 279.44 52.7382 279.195 53.3249 278.704C53.9115 278.213 54.2049 277.525 54.2049 276.64C54.2049 275.733 53.9115 275.04 53.3249 274.56C52.7382 274.069 51.8902 273.824 50.7809 273.824H47.8049V279.44H50.7809ZM58.1834 272.8H62.7434C63.9274 272.8 64.9727 273.04 65.8794 273.52C66.786 273.989 67.49 274.651 67.9914 275.504C68.4927 276.347 68.7434 277.312 68.7434 278.4C68.7434 279.488 68.4927 280.459 67.9914 281.312C67.49 282.155 66.786 282.816 65.8794 283.296C64.9727 283.765 63.9274 284 62.7434 284H58.1834V272.8ZM62.6794 282.976C63.6607 282.976 64.5194 282.784 65.2554 282.4C65.9914 282.005 66.562 281.467 66.9674 280.784C67.3727 280.091 67.5754 279.296 67.5754 278.4C67.5754 277.504 67.3727 276.715 66.9674 276.032C66.562 275.339 65.9914 274.8 65.2554 274.416C64.5194 274.021 63.6607 273.824 62.6794 273.824H59.3674V282.976H62.6794ZM79.0501 284L76.4901 280.4C76.2021 280.432 75.9035 280.448 75.5941 280.448H72.5861V284H71.4021V272.8H75.5941C77.0235 272.8 78.1435 273.141 78.9541 273.824C79.7648 274.507 80.1701 275.445 80.1701 276.64C80.1701 277.515 79.9461 278.256 79.4981 278.864C79.0608 279.461 78.4315 279.893 77.6101 280.16L80.3461 284H79.0501ZM75.5621 279.44C76.6715 279.44 77.5195 279.195 78.1061 278.704C78.6928 278.213 78.9861 277.525 78.9861 276.64C78.9861 275.733 78.6928 275.04 78.1061 274.56C77.5195 274.069 76.6715 273.824 75.5621 273.824H72.5861V279.44H75.5621ZM87.8606 284.096C86.7513 284.096 85.7433 283.851 84.8366 283.36C83.9406 282.859 83.2366 282.176 82.7246 281.312C82.2233 280.448 81.9726 279.477 81.9726 278.4C81.9726 277.323 82.2233 276.352 82.7246 275.488C83.2366 274.624 83.9406 273.947 84.8366 273.456C85.7433 272.955 86.7513 272.704 87.8606 272.704C88.97 272.704 89.9673 272.949 90.8526 273.44C91.7486 273.931 92.4526 274.613 92.9646 275.488C93.4766 276.352 93.7326 277.323 93.7326 278.4C93.7326 279.477 93.4766 280.453 92.9646 281.328C92.4526 282.192 91.7486 282.869 90.8526 283.36C89.9673 283.851 88.97 284.096 87.8606 284.096ZM87.8606 283.04C88.746 283.04 89.546 282.843 90.2606 282.448C90.9753 282.043 91.5353 281.488 91.9406 280.784C92.346 280.069 92.5486 279.275 92.5486 278.4C92.5486 277.525 92.346 276.736 91.9406 276.032C91.5353 275.317 90.9753 274.763 90.2606 274.368C89.546 273.963 88.746 273.76 87.8606 273.76C86.9753 273.76 86.17 273.963 85.4446 274.368C84.73 274.763 84.1646 275.317 83.7486 276.032C83.3433 276.736 83.1406 277.525 83.1406 278.4C83.1406 279.275 83.3433 280.069 83.7486 280.784C84.1646 281.488 84.73 282.043 85.4446 282.448C86.17 282.843 86.9753 283.04 87.8606 283.04ZM100.579 272.8C102.008 272.8 103.128 273.141 103.939 273.824C104.749 274.507 105.155 275.445 105.155 276.64C105.155 277.835 104.749 278.773 103.939 279.456C103.128 280.128 102.008 280.464 100.579 280.464H97.5705V284H96.3865V272.8H100.579ZM100.547 279.424C101.656 279.424 102.504 279.184 103.091 278.704C103.677 278.213 103.97 277.525 103.97 276.64C103.97 275.733 103.677 275.04 103.091 274.56C102.504 274.069 101.656 273.824 100.547 273.824H97.5705V279.424H100.547Z" fill="white"/>
<path d="M37.12 323.68H46.56V331H24.12V325.2L34.24 315.84C36.16 314.04 36.44 312.96 36.44 312C36.44 310.64 35.52 309.8 33.72 309.8C32.04 309.8 30.44 310.72 29.6 312.4L22.48 308.84C24.52 305 28.56 302.36 34.6 302.36C41.24 302.36 45.92 305.8 45.92 311.12C45.92 313.88 45.2 316.36 41.12 320.04L37.12 323.68ZM61.1759 331.64C53.7759 331.64 48.4959 326.28 48.4959 317C48.4959 307.72 53.7759 302.36 61.1759 302.36C68.5759 302.36 73.8559 307.72 73.8559 317C73.8559 326.28 68.5759 331.64 61.1759 331.64ZM61.1759 324.08C63.0159 324.08 64.3759 322.4 64.3759 317C64.3759 311.6 63.0159 309.92 61.1759 309.92C59.3359 309.92 57.9759 311.6 57.9759 317C57.9759 322.4 59.3359 324.08 61.1759 324.08ZM83.1113 318.2C78.8713 318.2 75.6713 315.4 75.6713 310.4C75.6713 305.44 78.8713 302.6 83.1113 302.6C87.3513 302.6 90.5513 305.44 90.5513 310.4C90.5513 315.4 87.3513 318.2 83.1113 318.2ZM80.4313 331L99.5513 303H106.311L87.1913 331H80.4313ZM83.1113 313.88C83.9913 313.88 84.8713 313.08 84.8713 310.4C84.8713 307.72 83.9913 306.92 83.1113 306.92C82.2313 306.92 81.3513 307.72 81.3513 310.4C81.3513 313.08 82.2313 313.88 83.1113 313.88ZM103.631 331.4C99.3913 331.4 96.1913 328.6 96.1913 323.6C96.1913 318.64 99.3913 315.8 103.631 315.8C107.871 315.8 111.071 318.64 111.071 323.6C111.071 328.6 107.871 331.4 103.631 331.4ZM103.631 327.08C104.511 327.08 105.391 326.28 105.391 323.6C105.391 320.92 104.511 320.12 103.631 320.12C102.751 320.12 101.871 320.92 101.871 323.6C101.871 326.28 102.751 327.08 103.631 327.08Z" fill="white"/>
<path d="M26.688 126.096C25.5787 126.096 24.576 125.851 23.68 125.36C22.7947 124.869 22.096 124.192 21.584 123.328C21.0827 122.453 20.832 121.477 20.832 120.4C20.832 119.323 21.0827 118.352 21.584 117.488C22.096 116.613 22.8 115.931 23.696 115.44C24.592 114.949 25.5947 114.704 26.704 114.704C27.536 114.704 28.304 114.843 29.008 115.12C29.712 115.397 30.3093 115.803 30.8 116.336L30.048 117.088C29.1733 116.203 28.0693 115.76 26.736 115.76C25.8507 115.76 25.0453 115.963 24.32 116.368C23.5947 116.773 23.024 117.328 22.608 118.032C22.2027 118.736 22 119.525 22 120.4C22 121.275 22.2027 122.064 22.608 122.768C23.024 123.472 23.5947 124.027 24.32 124.432C25.0453 124.837 25.8507 125.04 26.736 125.04C28.08 125.04 29.184 124.592 30.048 123.696L30.8 124.448C30.3093 124.981 29.7067 125.392 28.992 125.68C28.288 125.957 27.52 126.096 26.688 126.096ZM42.684 114.8V126H41.516V120.832H34.508V126H33.324V114.8H34.508V119.792H41.516V114.8H42.684ZM53.3636 123.008H47.1236L45.7796 126H44.5476L49.6676 114.8H50.8356L55.9556 126H54.7076L53.3636 123.008ZM52.9316 122.048L50.2436 116.032L47.5556 122.048H52.9316ZM65.4564 126L62.8964 122.4C62.6084 122.432 62.3097 122.448 62.0004 122.448H58.9924V126H57.8084V114.8H62.0004C63.4297 114.8 64.5497 115.141 65.3604 115.824C66.171 116.507 66.5764 117.445 66.5764 118.64C66.5764 119.515 66.3524 120.256 65.9044 120.864C65.467 121.461 64.8377 121.893 64.0164 122.16L66.7524 126H65.4564ZM61.9684 121.44C63.0777 121.44 63.9257 121.195 64.5124 120.704C65.099 120.213 65.3924 119.525 65.3924 118.64C65.3924 117.733 65.099 117.04 64.5124 116.56C63.9257 116.069 63.0777 115.824 61.9684 115.824H58.9924V121.44H61.9684ZM69.3709 114.8H70.5549V126H69.3709V114.8ZM76.375 115.824H72.439V114.8H81.495V115.824H77.559V126H76.375V115.824ZM87.1484 122.128V126H85.9804V122.128L81.5004 114.8H82.7644L86.6044 121.088L90.4444 114.8H91.6284L87.1484 122.128Z" fill="white"/>
<path d="M42.38 156.08C46.78 157.16 49.1 160.16 49.1 164.04C49.1 168.84 45.26 173.64 36.3 173.64C32.46 173.64 28.26 172.8 25.26 171.12L28.46 164.16C30.86 165.56 33.62 166.2 35.98 166.2C38.1 166.2 39.62 165.48 39.62 164.04C39.62 162.84 38.7 162.12 36.3 162.12H32.58V156.32L36.7 152.12H26.7V145H47.58V150.8L42.38 156.08ZM57.7597 160.2C53.5197 160.2 50.3197 157.4 50.3197 152.4C50.3197 147.44 53.5197 144.6 57.7597 144.6C61.9997 144.6 65.1997 147.44 65.1997 152.4C65.1997 157.4 61.9997 160.2 57.7597 160.2ZM55.0797 173L74.1997 145H80.9597L61.8397 173H55.0797ZM57.7597 155.88C58.6397 155.88 59.5197 155.08 59.5197 152.4C59.5197 149.72 58.6397 148.92 57.7597 148.92C56.8797 148.92 55.9997 149.72 55.9997 152.4C55.9997 155.08 56.8797 155.88 57.7597 155.88ZM78.2797 173.4C74.0397 173.4 70.8397 170.6 70.8397 165.6C70.8397 160.64 74.0397 157.8 78.2797 157.8C82.5197 157.8 85.7197 160.64 85.7197 165.6C85.7197 170.6 82.5197 173.4 78.2797 173.4ZM78.2797 169.08C79.1597 169.08 80.0397 168.28 80.0397 165.6C80.0397 162.92 79.1597 162.12 78.2797 162.12C77.3997 162.12 76.5197 162.92 76.5197 165.6C76.5197 168.28 77.3997 169.08 78.2797 169.08Z" fill="white"/>
<path d="M68.688 32.096C67.5787 32.096 66.576 31.8507 65.68 31.36C64.7947 30.8693 64.096 30.192 63.584 29.328C63.0827 28.4533 62.832 27.4773 62.832 26.4C62.832 25.3227 63.0827 24.352 63.584 23.488C64.096 22.6133 64.8 21.9307 65.696 21.44C66.592 20.9493 67.5947 20.704 68.704 20.704C69.536 20.704 70.304 20.8427 71.008 21.12C71.712 21.3973 72.3093 21.8027 72.8 22.336L72.048 23.088C71.1733 22.2027 70.0693 21.76 68.736 21.76C67.8507 21.76 67.0453 21.9627 66.32 22.368C65.5947 22.7733 65.024 23.328 64.608 24.032C64.2027 24.736 64 25.5253 64 26.4C64 27.2747 64.2027 28.064 64.608 28.768C65.024 29.472 65.5947 30.0267 66.32 30.432C67.0453 30.8373 67.8507 31.04 68.736 31.04C70.08 31.04 71.184 30.592 72.048 29.696L72.8 30.448C72.3093 30.9813 71.7067 31.392 70.992 31.68C70.288 31.9573 69.52 32.096 68.688 32.096ZM83.244 30.976V32H75.324V20.8H83.004V21.824H76.508V25.808H82.3V26.816H76.508V30.976H83.244ZM92.9105 32L89.2945 27.072L85.6945 32H84.3345L88.5905 26.24L84.6065 20.8H85.9665L89.3425 25.376L92.7025 20.8H93.9825L90.0145 26.208L94.2865 32H92.9105ZM108.59 32.176L107.038 30.576C106.089 31.5893 104.841 32.096 103.294 32.096C102.569 32.096 101.918 31.9787 101.342 31.744C100.777 31.4987 100.334 31.1627 100.014 30.736C99.694 30.2987 99.534 29.8027 99.534 29.248C99.534 28.576 99.7473 27.9733 100.174 27.44C100.601 26.9067 101.326 26.3467 102.35 25.76C101.817 25.2053 101.449 24.736 101.246 24.352C101.043 23.9573 100.942 23.5413 100.942 23.104C100.942 22.3893 101.198 21.8133 101.71 21.376C102.222 20.9387 102.91 20.72 103.774 20.72C104.574 20.72 105.209 20.9173 105.678 21.312C106.147 21.7067 106.382 22.2507 106.382 22.944C106.382 23.4987 106.195 24 105.822 24.448C105.449 24.8853 104.803 25.3707 103.886 25.904L106.958 29.072C107.299 28.464 107.55 27.744 107.71 26.912L108.638 27.2C108.435 28.2027 108.105 29.0613 107.646 29.776L109.246 31.424L108.59 32.176ZM103.774 21.568C103.219 21.568 102.782 21.7067 102.462 21.984C102.153 22.2613 101.998 22.6293 101.998 23.088C101.998 23.4187 102.083 23.7333 102.254 24.032C102.425 24.3307 102.761 24.736 103.262 25.248C104.073 24.7787 104.633 24.3787 104.942 24.048C105.251 23.7173 105.406 23.3547 105.406 22.96C105.406 22.5333 105.262 22.1973 104.974 21.952C104.686 21.696 104.286 21.568 103.774 21.568ZM103.358 31.152C104.595 31.152 105.598 30.7307 106.366 29.888L102.99 26.416C102.105 26.9173 101.491 27.3707 101.15 27.776C100.819 28.1813 100.654 28.6347 100.654 29.136C100.654 29.744 100.899 30.2347 101.39 30.608C101.891 30.9707 102.547 31.152 103.358 31.152ZM117.641 21.824H113.705V20.8H122.761V21.824H118.825V32H117.641V21.824ZM132.572 30.976V32H124.652V20.8H132.332V21.824H125.836V25.808H131.628V26.816H125.836V30.976H132.572ZM142.379 29.008H136.139L134.795 32H133.563L138.683 20.8H139.851L144.971 32H143.723L142.379 29.008ZM141.947 28.048L139.259 22.032L136.571 28.048H141.947ZM158.456 20.8V32H157.32V23.04L152.92 30.576H152.36L147.96 23.088V32H146.824V20.8H147.8L152.664 29.104L157.48 20.8H158.456Z" fill="white"/>
<path d="M94.62 71.68H104.06V79H81.62V73.2L91.74 63.84C93.66 62.04 93.94 60.96 93.94 60C93.94 58.64 93.02 57.8 91.22 57.8C89.54 57.8 87.94 58.72 87.1 60.4L79.98 56.84C82.02 53 86.06 50.36 92.1 50.36C98.74 50.36 103.42 53.8 103.42 59.12C103.42 61.88 102.7 64.36 98.62 68.04L94.62 71.68ZM113.307 66.2C109.067 66.2 105.867 63.4 105.867 58.4C105.867 53.44 109.067 50.6 113.307 50.6C117.547 50.6 120.747 53.44 120.747 58.4C120.747 63.4 117.547 66.2 113.307 66.2ZM110.627 79L129.747 51H136.507L117.387 79H110.627ZM113.307 61.88C114.187 61.88 115.067 61.08 115.067 58.4C115.067 55.72 114.187 54.92 113.307 54.92C112.427 54.92 111.547 55.72 111.547 58.4C111.547 61.08 112.427 61.88 113.307 61.88ZM133.827 79.4C129.587 79.4 126.387 76.6 126.387 71.6C126.387 66.64 129.587 63.8 133.827 63.8C138.067 63.8 141.267 66.64 141.267 71.6C141.267 76.6 138.067 79.4 133.827 79.4ZM133.827 75.08C134.707 75.08 135.587 74.28 135.587 71.6C135.587 68.92 134.707 68.12 133.827 68.12C132.947 68.12 132.067 68.92 132.067 71.6C132.067 74.28 132.947 75.08 133.827 75.08Z" fill="white"/>
</g>
</g>
<defs>
<clipPath id="clip0_47_2">
<rect width="588" height="445" fill="white"/>
</clipPath>
</defs>
</svg>
